<?xml version="1.0" encoding="utf-8"?>
<!DOCTYPE svg PUBLIC "-//W3C//DTD SVG 1.0//EN" "http://www.w3.org/TR/2001/REC-SVG-20010904/DTD/svg10.dtd">
<svg version="1.0" xmlns="http://www.w3.org/2000/svg" width="958px" height="780px" viewBox="0 0 958 780" preserveAspectRatio="xMidYMid meet">
 <g fill="none">
  <path d="M477.2 752.4 c-34.5 -34.6 -85.7 -64.5 -142.9 -83.5 -13.8 -4.5 -43.4 -12.2 -59 -15.2 -26.1 -5.2 -64 -9.1 -99.1 -10.2 l-19.3 -0.6 0 -227.6 0 -227.5 2.7 0 c1.5 0 5.5 1.4 8.9 3.1 15 7.4 25.5 8.3 35.9 3.1 8.8 -4.4 16.3 -14.8 18.8 -25.8 2 -9 -1.8 -22.5 -9 -31.9 -2.3 -2.9 -2.9 -4.7 -2.7 -6.8 0.3 -2.9 0.3 -2.9 5.3 -2.8 12.1 0.3 63.6 15.8 93 27.9 39.4 16.3 83.1 40.4 106.1 58.3 14.5 11.2 17.7 14.5 17.7 18.1 0 2.8 -0.3 3.1 -3.8 4 -11.8 3.1 -23 8.3 -29.3 14 l-4.5 3.9 -13.2 0.5 c-19.4 0.6 -32 4.4 -46.4 13.5 -8 5.2 -19.3 16.5 -22.6 22.8 -2 3.8 -2.6 4.4 -6.8 5.4 -27.8 6.7 -51.3 31.9 -52.9 56.4 l-0.5 7.1 -4.7 5 c-8.9 9.2 -14.9 24.3 -13.7 34.6 0.7 6.3 3.5 13.7 7.4 19.4 l3.1 4.5 -0.2 11.1 c-0.1 9.3 0.2 11.9 1.8 16.3 8.6 23.4 31.8 39.8 61 43.2 25.1 2.9 56.1 6.6 57.6 6.9 1.3 0.3 2.4 1.8 3.4 4.8 3.8 10.5 14.4 23.1 25.8 30.3 10.1 6.4 22 10.7 29.7 10.7 2.3 0 5.3 1 8.3 2.6 14.3 8.3 33.4 8.7 54.2 1.5 3.6 -1.3 8.2 -2.3 10.2 -2.3 3.4 0 4.2 0.5 9.9 6.7 3.4 3.6 12.6 11.9 20.4 18.3 26 21.1 33.8 30.7 49.4 60.6 9.3 17.9 10.4 19.1 18.4 20 2.5 0.4 10 0.2 16.5 -0.2 13.2 -0.9 16.1 -2.1 18.9 -7.8 1.7 -3.7 1.4 -5.2 -6.4 -26.3 -3.3 -9 -4.9 -14.8 -4.9 -17.6 l0 -4.2 8 0.8 c14.7 1.5 29.6 0.8 39.6 -1.8 24 -6.3 42 -20.1 51.9 -40 3.5 -7 4.6 -10.6 5.5 -17.1 l0.6 -5.3 5 -1.5 c21 -6.5 37.7 -26.3 44.5 -52.7 3.5 -13.5 2.1 -27.9 -4.3 -41.7 -3.5 -7.8 -3.6 -8.4 -0.8 -20.2 1.1 -5.1 1.2 -7.3 0.5 -11.8 -3 -17 -10.5 -30.2 -23 -40.3 -8 -6.4 -7.9 -6.3 -7.9 -10.3 0 -5.2 -3.8 -17 -7.6 -24 -5.3 -9.4 -16.3 -20 -25.8 -24.8 -4.2 -2.1 -9 -4 -10.7 -4.4 -2.7 -0.5 -3.5 -1.3 -5.8 -5.8 -12.1 -24 -45.2 -45.4 -79.7 -51.4 -7.3 -1.3 -9.7 -1.4 -17.2 -0.5 -13.6 1.7 -14.8 1.5 -21.1 -2.5 -3.1 -2 -6.2 -3.6 -6.9 -3.6 -0.8 0 -1.2 -1.2 -1.2 -3.5 0 -3.2 0.5 -4.1 5.1 -8.2 34.1 -31.2 104.4 -67.9 167.9 -87.6 15.6 -4.9 45.2 -12.2 49.3 -12.2 2.5 0 2.7 0.3 2.7 3.3 0 2.1 -1 4.6 -2.8 7.3 -5.4 7.7 -9 18.2 -9 25.9 0 6.4 3.2 15.4 7.6 21.4 4.7 6.4 11.2 10.5 19.8 12.6 5.6 1.4 6.5 1.4 12.7 0 3.6 -0.8 9.9 -3.1 14.1 -5.1 4.1 -2 8.7 -3.6 10.2 -3.6 l2.8 0 0 227.7 0 227.7 -2 0 c-10 0 -48.5 2.2 -64.1 3.6 -69.9 6.4 -130.7 24 -182.2 52.7 -31 17.2 -51.7 32.3 -72.8 53.2 -7.5 7.4 -10 9.3 -12.1 9.3 l-2.5 0 0 -84.7 0 -84.7 -7.7 -7 -7.7 -7 0 91.7 0 91.7 -2.9 0 c-2.5 -0.1 -4.4 -1.5 -12.5 -9.6z m-132 -132.8 c-1 -0.5 -2.4 -0.8 -3.2 -0.8 -0.8 0 -0.7 0.4 0.5 0.8 1 0.5 2.4 0.8 3.2 0.8 0.8 0 0.7 -0.4 -0.5 -0.8z m-12.7 -3.6 c-1 -0.5 -2.4 -0.8 -3.2 -0.8 -0.8 0 -0.7 0.4 0.5 0.8 1 0.5 2.4 0.8 3.2 0.8 0.8 0 0.7 -0.4 -0.5 -0.8z m-15.9 -4.2 c-8.3 -2.6 -40 -8.5 -57.2 -10.7 -24.1 -3.1 -38.8 -4.2 -52 -4.1 -13.4 0.2 -10.3 1.5 3.9 1.6 24.3 0.3 61.5 4.8 90.3 10.9 17.3 3.7 21.7 4.4 15 2.3z m415.9 -8.1 c12.3 -2.1 31.5 -3.9 52.2 -5 10.3 -0.5 18.8 -1.2 19 -1.5 0.7 -0.6 -14.3 -0.4 -28.5 0.5 -15.3 1 -39.9 4 -48.1 5.9 -7.3 1.6 -4.5 1.6 5.4 0z m-387 -20.8 c-0.6 -0.7 -22.4 -6.6 -34.8 -9.5 -25.6 -6 -57.4 -10.9 -82.1 -12.7 -25.2 -1.9 -31.5 -2.1 -32.1 -1.2 -0.6 1.1 3 1.5 28 2.8 37.3 2.2 77.6 8.8 110 18.1 8.6 2.5 11.9 3.3 11.1 2.4z m426.9 -20.4 c6.5 -0.5 16.1 -1.2 21.6 -1.5 5.4 -0.3 9.7 -0.8 9.7 -1.2 0 -1.5 -49.8 2.2 -51.3 3.7 -0.6 0.6 0.5 0.8 3.6 0.5 2.5 -0.4 9.9 -1 16.3 -1.5z m-459.9 -25.6 c-5.4 -1.6 -38.5 -8 -51.3 -9.8 -27.5 -4 -67 -6.9 -64.9 -4.9 0.5 0.5 9.2 1.4 19.3 2 30.3 1.7 61.4 5.8 86.4 11.3 9.7 2.2 15.4 2.9 10.4 1.4z m491.2 -14.4 c1.7 -1.1 -5.7 -1.1 -11.8 -0.1 -3.7 0.7 -3.4 0.8 3.2 0.9 4 0 7.9 -0.4 8.6 -0.8z m-572.8 -37.6 c-1.5 -1.1 -5.3 -1.4 -18.6 -1.4 -19.7 0 -21.9 1.6 -2.8 2.1 6.7 0.1 14.7 0.3 17.7 0.4 5 0.2 5.3 0.1 3.7 -1.1z m-17.8 -38.6 c0 -0.5 -3.5 -0.9 -8.8 -0.9 -6.1 0 -8.4 0.3 -7.5 0.9 1.8 1.2 16.3 1.2 16.3 0z m-5.9 -39 c-0.3 -0.5 -3 -0.9 -6 -0.9 -3 0 -5.4 0.4 -5.4 0.9 0 0.5 2.6 0.9 6 0.9 3.7 0 5.7 -0.4 5.4 -0.9z m596.9 0 c0.4 -0.5 -0.7 -0.9 -2.7 -0.9 -2 0 -3.1 0.4 -2.7 0.9 0.3 0.5 1.5 0.9 2.7 0.9 1.2 0 2.4 -0.4 2.7 -0.9z m-593.3 -37.2 c0.4 -0.5 -2.3 -0.9 -7.3 -0.9 -5 0 -7.6 0.4 -7.3 0.9 0.3 0.5 3.5 0.9 7.3 0.9 3.7 0 7 -0.4 7.3 -0.9z m592.4 0 c1.2 -0.5 -0.9 -0.8 -6.2 -0.8 -5.1 -0.1 -7.8 0.3 -7.4 0.8 0.6 1.1 11.1 1.1 13.6 0z m-577 -38.1 c0.4 -0.6 -4.8 -0.9 -15 -0.9 -10.2 0 -15.3 0.3 -15 0.9 0.4 0.5 6.4 0.9 15 0.9 8.6 0 14.6 -0.4 15 -0.9z m577.4 0 c0 -0.5 -6.8 -0.9 -18.7 -0.9 -12.2 0 -18.4 0.3 -18.1 0.9 0.4 0.5 7.5 0.9 18.7 0.9 11.4 0 18.1 -0.4 18.1 -0.9z m-552.5 -37.6 c1 -1.2 -1.9 -1.4 -25 -1.4 -14.4 0 -27.2 0.3 -28.3 0.6 -5.5 1.5 2.2 2.1 26.2 2.1 22 0 26.1 -0.2 27.1 -1.4z m552.4 -0.1 c0.2 -0.2 0.2 -0.5 -0.1 -0.8 -0.9 -0.9 -62.3 0.7 -61.8 1.6 0.5 0.8 61 0 61.9 -0.8z m-58.4 -35.7 c9.6 -0.5 26.8 -1 38 -1 14.5 0 20.6 -0.3 21 -1.1 0.7 -1.2 -50.7 -0.4 -68.6 1.1 -14.8 1.3 -33.6 3.8 -33.1 4.4 0.2 0.4 5.9 -0.1 12.7 -0.9 6.7 -0.9 20.2 -2 29.9 -2.5z m-450 2.7 c-0.5 -0.4 -9.1 -1.6 -19.1 -2.8 -21.1 -2.4 -81.1 -3.8 -79.9 -1.9 0.5 0.7 7.3 1 22.3 1 23.2 0 48.3 1.3 63.1 3.2 11.4 1.5 14.7 1.5 13.6 0.5z m-0.5 -36 c-19.5 -3.6 -38.6 -5.1 -68.9 -5.5 -18.6 -0.2 -29.8 0 -29 0.5 0.7 0.5 15.2 1.1 32.2 1.4 27.9 0.5 48.8 1.9 62.6 4.2 2.4 0.5 5.8 0.8 7.3 0.8 1.5 0 -0.4 -0.5 -4.1 -1.3z m415.3 -0.1 c-0.9 -0.2 -2.4 -0.2 -3.2 0 -0.9 0.3 -0.2 0.5 1.5 0.5 1.7 0 2.4 -0.2 1.6 -0.5z m7.3 -0.9 c-0.9 -0.2 -2.5 -0.2 -3.6 0 -1.2 0.2 -0.5 0.4 1.5 0.4 2 0.1 2.9 -0.1 2.1 -0.4z m28.8 -2.1 c7.5 -0.5 23.3 -0.9 35.1 -0.9 15.3 0 21.7 -0.3 22.1 -1.1 1.5 -2.3 -81.9 1.2 -84 3.5 -0.3 0.3 2.6 0.3 6.4 -0.1 3.7 -0.3 13 -1 20.4 -1.5z"/>
  <path d="M419.1 730.1 c-45.5 -21.3 -112.3 -38.7 -171.9 -44.6 -26.8 -2.7 -41.5 -3.4 -83.6 -3.9 l-42.9 -0.5 0 -241.5 c0 -132.8 0.3 -243.4 0.5 -245.8 l0.6 -4.2 8.9 0 9 0 0 235.4 0 235.4 22.5 0 c80.9 0 147.4 11.5 210.2 36.3 16.1 6.4 43.5 20 53.8 26.6 6.1 3.9 6.5 4.4 6.5 7.4 0 3 -0.2 3.2 -2.9 3.1 -1.6 0 -6.4 -1.7 -10.7 -3.7z"/>
  <path d="M571.5 729.2 c0 -5 3.6 -7.6 26.2 -19 65.9 -33 147.3 -49.7 242 -49.8 l20.2 0 0.2 -235.1 0.3 -235.2 8.2 0.3 c4.5 0.1 8.7 0.4 9.3 0.6 0.8 0.3 1.1 50.2 1.1 245.2 l0 244.9 -39.2 0.6 c-48.3 0.7 -72.2 2.3 -105.5 6.5 -49.7 6.4 -106.5 21.3 -143.3 37.6 -7 3.1 -14.2 5.8 -16.1 6 -3.4 0.5 -3.4 0.5 -3.4 -2.6z"/>
  <path d="M591.5 634.4 c-2 -5.1 -4.2 -9.3 -12 -23.7 -8.3 -15.2 -19.4 -27.7 -38.8 -43.3 -6.7 -5.4 -15.2 -12.8 -18.8 -16.3 -6.1 -5.9 -6.6 -6.7 -6.6 -10.2 0 -2 0.5 -4.1 1.2 -4.6 2.4 -2 9.8 -2.9 30.1 -3.8 18.9 -0.8 32.5 -2.3 39.9 -4.4 1.5 -0.5 8.9 -2.6 16.3 -4.9 19.1 -5.8 22.7 -6.4 31.5 -5.8 10.6 0.8 30 4.4 50.2 9.2 9.5 2.3 19.1 4.4 21.1 4.7 2.3 0.4 4.2 1.2 4.5 2 0.9 2.4 -1.4 12.7 -4.2 18.6 -7.3 15.5 -22 26.4 -42.4 31.5 -7.3 1.8 -9.6 2 -24 1.5 -13.2 -0.4 -17.2 -0.8 -24 -2.7 -20.8 -5.9 -38.5 -16.6 -49.4 -30.2 -5.7 -7.1 -7.3 -8.3 -4.5 -3.4 3.6 6.6 10.8 15.4 16.2 20.1 5.8 5 20.1 14.3 23.3 15.2 1.6 0.5 2 1.4 2.4 7.1 0.6 7.6 3.5 17.2 9.3 31.1 2.6 6.4 4.1 11.2 4.1 13.7 l0 3.8 -11.6 0 -11.6 0 -2.2 -5.2z"/>
  <path d="M445.7 540.2 c-5.3 -1.5 -11.3 -4.3 -14.7 -6.9 -1.3 -1.1 -3.6 -1.7 -5.9 -1.7 -10.7 0 -22.2 -5.3 -31.1 -14.2 -11.2 -11 -15.8 -24.1 -14.3 -40.7 1.2 -14.6 7.3 -26.5 20 -38.4 6.4 -6.1 21.1 -15.8 26.6 -17.4 1.4 -0.4 5 -1.8 8 -3.1 8 -3.3 14.9 -4.3 33.9 -5 l16.8 -0.5 6.4 -4.4 c13 -9.2 23.6 -13.5 43.5 -17.8 2 -0.5 10.6 -0.8 19.1 -0.9 8.5 0 16.9 -0.5 18.8 -0.9 7.6 -2.2 18.9 -13.4 24.9 -24.9 l3.4 -6.4 -10.4 10.5 c-5.7 5.8 -11.8 11.2 -13.7 12 -2.4 1.2 -6 1.5 -15 1.5 -6.4 0 -13.2 -0.3 -15.2 -0.6 l-3.4 -0.5 0.6 -6 c0.5 -3.3 0.6 -13.4 0.5 -22.5 -0.4 -21.1 -0.8 -19.8 12.1 -38.1 4.4 -6.2 7.3 -13.1 8.3 -19.7 1.1 -6.9 -1.1 -5 -6.6 5.8 -2.5 5.2 -7.9 13.5 -11.7 18.5 -7.3 9.4 -10.8 16.6 -11.2 22.8 -0.2 2 0 9.3 0.5 16.3 1.1 19.8 -0.5 24.9 -8.3 26.2 -5.2 0.9 -17.3 4.9 -22.8 7.5 -2.6 1.2 -7.7 4.4 -11.2 7.2 l-6.4 4.9 -9.2 0 c-17.2 0 -43.8 3.7 -45.5 6.4 -0.3 0.5 -2.3 0.8 -4.4 0.8 -3.5 0 -4.3 -0.5 -7.3 -3.8 -4.8 -5.6 -10 -17.1 -12.3 -27.2 -1.2 -4.9 -2.4 -8.9 -2.8 -8.9 -1.1 0 -1.9 6.3 -1.4 11.2 0.9 7.2 4.1 15.7 8.4 22.1 5.1 7.5 5.4 11.1 1.1 13.2 -16.1 8.3 -35.2 27.3 -40.6 40.5 -1.1 2.7 -1.3 2.8 -7.3 2.8 -14.3 0 -24 -4.1 -34.2 -14.6 l-7 -7.2 -5 0 c-13.1 0 -22.2 -3.2 -28.8 -9.7 -2.3 -2.3 -3.4 -3.1 -2.8 -1.9 5.5 10.4 16.3 16.6 31.2 17.7 l7.3 0.5 6.1 6.5 c9.2 9.8 16.4 13.3 30.1 14.6 l6.3 0.5 -0.6 4.6 c-0.4 2.6 -0.9 7.1 -1.2 10 l-0.5 5.2 -4.5 0 c-2.5 0 -12.3 -1.2 -21.9 -2.6 -9.5 -1.5 -22.5 -3.4 -28.8 -4.1 -20.1 -2.5 -31.8 -7.6 -41.2 -18.1 -6.4 -7 -9.5 -14.5 -10.1 -23.6 -0.3 -4.1 0 -9.3 0.5 -11.5 0.9 -3.9 0.8 -4.2 -2.6 -8.6 -6.4 -8.3 -7.7 -12.3 -7.7 -23.1 0 -9 0.2 -10 2.9 -15.4 1.6 -3.3 5.6 -8.9 8.9 -12.5 5.5 -6.3 5.9 -6.9 5.9 -11.1 0 -22.6 16.9 -42.2 42.3 -49 3.9 -1.1 8.1 -2.5 9.3 -3.3 1.1 -0.7 4.2 -4.7 6.8 -8.8 12.1 -18.6 29.7 -27.3 57.8 -28.5 l13.2 -0.5 7.3 -5.3 c8.6 -6.2 14.8 -9.2 24.6 -11.9 5.9 -1.5 9.8 -1.9 22.1 -2 13 0 15.9 0.2 22.2 2 4 1.2 9.1 3.2 11.4 4.4 l4.3 2.3 4.8 -3.3 c14 -9.4 40.1 -11.3 61.6 -4.6 3.8 1.3 8.3 3.2 10.1 4.4 2.6 1.7 3.1 2.6 3.1 5.6 l0 3.6 -15.9 0.5 c-16.9 0.5 -19.4 1.1 -26.1 5.1 -2.4 1.5 -5.4 3.1 -6.7 3.8 -2.8 1.5 -7.1 7.2 -9.3 12.2 -0.7 1.9 -2.1 7.1 -2.9 11.3 -0.8 4.4 -2.1 9.2 -2.8 10.6 -0.8 1.5 -4.8 6.3 -9 10.5 -12.2 12.5 -13.6 18.2 -10.4 40.7 1.1 7.2 1.9 13.5 1.9 14.1 0 0.5 0.5 0.1 1.1 -0.9 0.7 -1.1 1.4 -8.3 1.6 -19.1 0.7 -20.3 1.5 -23.2 9.2 -30.1 12.2 -11 14.1 -14.3 16.6 -28.7 1.5 -8.7 2.9 -11.9 6.9 -15.9 4.9 -4.9 17.2 -8.3 30.4 -8.3 7.2 0 12 -1.3 20.2 -5.3 7.3 -3.5 12.9 -4.7 22.8 -4.7 14.7 0 31.3 4.3 46.8 12 14.2 7.1 24 15.1 33.2 27.2 4.2 5.4 5.4 7.7 5.4 10.1 l0 3.2 -7 0.5 c-12.5 1.1 -20.9 4.3 -28.7 10.7 -5.2 4.3 -7.5 4.4 -17 0.2 -5 -2.3 -7.1 -2.6 -13.6 -2.6 -7 0 -8.3 0.4 -14.9 3.4 -4 1.8 -7 3.6 -6.7 3.9 0.4 0.3 1.3 0.1 2.3 -0.4 4 -2.1 8.7 -2.9 16.4 -2.9 10 0 16.5 2.1 26 8.3 l6.4 4.1 -0.3 -3.8 c-0.3 -3.4 0 -4 2.7 -6.1 12.5 -9.6 41.7 -12.4 56.1 -5.4 13.2 6.4 22.6 23.4 22.7 40.7 l0 4.6 5.8 3.7 c11.6 7.6 20.9 20.1 23.3 31.8 1.5 7.3 0.6 21.2 -1.7 27.2 -3.8 10 -13.2 19.3 -25.3 25.5 -7.8 3.9 -10 3.7 -15.9 -1.4 -5.3 -4.5 -15.1 -10.8 -15.8 -10.1 -0.3 0.2 3.4 4.3 8.1 8.9 11.4 11.5 12.7 14.3 13.3 28.9 l0.5 11.3 2.3 -4.1 c2.3 -4.2 2.4 -6.5 1.6 -22.5 l-0.3 -4.8 4.5 -1.5 c6.8 -2.4 13 -6.3 19.1 -12.2 4.8 -4.6 6 -5.3 9.2 -5.3 l3.6 0 1.6 5.7 c5.2 18.2 1.3 41.3 -9.5 56.6 -5.3 7.5 -10.3 12.1 -17.7 16 -5.4 2.9 -5.4 2.9 -19.5 2.9 -13.3 -0.1 -15 -0.3 -29.9 -3.8 -42.1 -10 -50.3 -10.3 -74.7 -3.1 -20.5 6.2 -34.9 8.3 -56.4 8.3 -21.9 0 -30.9 1.8 -49.4 10 -4.7 2.2 -13.2 5 -19 6.4 -8.7 2.3 -12 2.6 -21.8 2.5 -6.8 0 -13.3 -0.5 -16.1 -1.3z m22.7 -22.7 c6 -1.5 12.3 -4.8 21.5 -10.9 11.9 -8.1 9.7 -7.4 -11.8 3.1 -7.3 3.5 -15.4 7 -18.1 7.7 l-5 1.4 4.1 0 c2.3 0.1 6.4 -0.5 9.3 -1.3z m93.9 -24.9 c8.9 -1 17.8 -3.1 20 -4.9 1.3 -1 16.9 -1.2 35.9 -0.5 8.6 0.3 10.9 0.1 16.8 -1.8 7.5 -2.4 12.9 -4.8 16.3 -7.6 1.7 -1.5 1.8 -1.6 0.5 -1.1 -1 0.4 -5.4 1.6 -9.9 2.8 -9.8 2.6 -27.3 3 -37.9 0.8 -7.2 -1.5 -8.2 -1.5 -20.3 2.3 -9.6 3 -26.9 5.4 -39.2 5.5 -4.9 0 -10.8 0.4 -13.3 0.7 l-4.5 0.6 6.8 1.5 c6.1 1.4 9.3 1.8 17.5 2.3 1.4 0.1 6.4 -0.3 11.3 -0.7z m-110 -23.2 c14.2 -9.5 17.3 -10.4 39.5 -11.2 l17.7 -0.6 8.6 -4.1 c4.7 -2.3 11.2 -6.3 14.2 -8.8 4.9 -4.1 6.2 -4.7 9.5 -4.7 2.2 0 6.5 0.9 9.8 1.9 7.7 2.4 25.9 2.8 34 0.6 7.4 -2 18 -6.4 22.5 -9.5 12.2 -8.2 24.4 -22.1 31.8 -36.6 3.8 -7.3 9.3 -21.6 8.5 -22.3 -0.2 -0.2 -1.9 2.4 -3.9 5.8 -15.5 27.2 -29.3 42.6 -44.5 50.1 -11.4 5.6 -17.3 6.6 -35.4 6.1 -19.1 -0.5 -19.8 -0.7 -19.3 -5.2 l0.3 -3.4 -4.1 3.4 c-10.3 8.4 -22.7 16.1 -31 19.2 -4 1.5 -7.3 1.7 -19.9 1.7 -12.5 0 -16.1 0.3 -21 1.8 -11.2 3.4 -24 14.2 -29.8 24.9 l-2.9 5.4 5.8 -6.1 c3.1 -3.4 7.3 -7.3 9.3 -8.5z m214.6 -35.4 c11.4 -5.5 24.3 -16.2 30 -25.2 6.4 -9.7 9.4 -20.5 8 -28.2 -1.1 -6 -6.4 -16.5 -9.9 -20 l-2.8 -2.7 3 6.4 c2.7 5.8 3 7.2 3.3 17.1 0.5 12.7 -0.7 17.1 -6.7 26.1 -4.3 6.4 -14.9 17 -23.5 23.4 -8.8 6.6 -8.9 6.8 -1.4 3.2z m-287.2 -16.9 c-3.4 -6.5 -12.2 -15.1 -19.4 -18.6 -9 -4.4 -15.5 -5.8 -28.1 -6.3 l-11.3 -0.4 3.6 1.7 c2 1 8.4 2.6 14.2 3.6 5.9 1.1 12.9 2.7 15.6 3.8 6.6 2.4 14.2 8.1 21.4 16 3.3 3.5 6 6.1 6.2 5.7 0.2 -0.5 -0.8 -2.9 -2.2 -5.6z m-95.2 -36.4 c0 -8.3 0.3 -9.9 2.5 -14.5 4 -8.1 8.8 -11.3 23.4 -16 1.7 -0.5 4.5 -1 6.2 -1 4.8 0 11.2 -1.9 14.4 -4.3 3.8 -2.8 7.9 -10 10.3 -18 2.6 -8.6 4.4 -12 9.3 -16.7 4.6 -4.4 7.7 -5.4 20.1 -6.4 l8.2 -0.5 -4.1 -1.3 c-12.4 -3.7 -27.5 3.1 -34.9 15.7 -1.4 2.3 -3.7 7.9 -5.3 12.4 -2 5.7 -3.6 8.9 -5.2 10.1 -1.3 0.9 -5.7 2.2 -10 2.9 -18.2 3 -29.6 10.2 -35.5 22.6 -3.1 6.5 -3.4 12.2 -1.3 19.5 0.8 2.6 1.5 4.7 1.6 4.7 0.1 0 0.2 -4.2 0.2 -9.3z m159.8 -18.2 c-0.3 -3 -1 -10.2 -1.5 -15.9 -0.7 -7.6 -0.8 -12.8 0 -19.7 1.5 -14.8 4.7 -22.3 13.9 -33.7 11.3 -13.9 10.4 -15.4 -1.7 -3.3 -13.6 13.6 -19 24.2 -20 40 -0.5 7.4 -0.5 7.4 -3.1 7.4 -1.4 0 -6.2 -1.2 -10.6 -2.7 -21.5 -7.2 -40.8 -0.6 -50.4 17.1 l-3.4 6.5 7.5 -7.6 c10.3 -10.4 14.8 -12.6 26.8 -13.2 6.6 -0.3 11.2 0 15.9 1.1 6.8 1.5 15.5 5.1 16.6 6.7 0.3 0.5 1.6 4.5 2.9 8.9 2.5 8.8 5.6 15.1 7 14.2 0.5 -0.3 0.6 -2.9 0.4 -6.1z m195.8 -70 c-3.6 -2.8 -12.3 -6.7 -19.2 -8.6 -5.9 -1.6 -8.6 -1.9 -16.6 -1.5 -14.5 0.7 -16.7 2.4 -3.4 2.4 12.4 0.1 21.6 1.7 32.4 6 9.2 3.5 9.2 3.5 6.8 1.7z m-223.1 -7.7 c2 -0.9 5.9 -3.8 8.6 -6.4 2.6 -2.5 3.7 -3.8 2.2 -2.8 -1.5 1 -5 2.9 -7.7 4.4 -4.8 2.4 -5.7 2.5 -21.8 3.2 -9.3 0.4 -17 0.7 -17.2 0.8 -1 0.5 26.9 3.3 29.5 2.9 1.5 -0.2 4.4 -1.2 6.4 -2.1z"/>
 </g>
 <g fill="none">
  <path d="m652 403.1 c-3 -5.2 -3.4 -24.3 -0.6 -38.4 3.7 -19.7 11 -41.6 16.3 -49.6 l2.6 -3.9 -2.9 1.5 c-4 2.1 -13.6 11.4 -19 18.5 l-4.5 5.9 2.8 0.3 c2.5 0.3 2.8 0.6 2.8 3.2 0 1.6 -0.8 5.2 -1.7 7.9 -4.6 13.2 -6.8 23.9 -6.8 34 -0.1 9.3 0.1 10.3 2.5 14.7 2.3 4.1 7.8 9.3 9.8 9.3 0.4 0 -0.3 -1.5 -1.4 -3.4z m-356 -2.8 c-2.1 -4.2 -2.4 -6.3 -2.8 -15.9 -0.9 -26.1 2.9 -48.9 12.1 -71.8 0.6 -1.5 0.5 -1.5 -1.2 -0.6 -1 0.5 -2.9 1 -4.2 1 -1.8 0 -2.4 0.5 -2.4 2 0 1.3 -1.8 3.8 -4.7 6.6 -4.8 4.5 -4.8 4.5 -2.3 4.8 2.1 0.3 2.4 0.7 2.4 3.1 0 1.5 -1.2 6.6 -2.7 11.4 -4.4 14.5 -6.6 28.1 -6.2 38.7 0.3 8.2 0.6 9.9 3 14.6 1.7 3.3 4.3 6.4 6.7 8.3 2.2 1.7 4.1 2.9 4.3 2.8 0.2 -0.2 -0.8 -2.4 -2.1 -5.1z m20.6 -12.6 c0.6 -2.9 2.5 -9.2 4.3 -13.9 1.9 -5.1 3.1 -10.1 3.1 -12.2 -0.1 -2.1 0.5 -5.4 1.3 -7.6 0.7 -2.2 1.4 -4.1 1.4 -4.3 0 -0.2 -1.5 -0.4 -3.2 -0.4 -3 0 -3.2 0.2 -3.2 3.1 0 1.7 -1.5 8.2 -3.3 14.3 -1.8 6.1 -4.3 14.5 -5.4 18.7 l-2.1 7.4 3 0 c2.9 0 3 -0.2 4.2 -5.2z m45.1 4.2 c-2.9 -1.7 -4.3 -5.9 -4.3 -13.2 0 -7.6 1.3 -13.5 4.4 -20.7 l2 -4.5 -3.7 3.6 c-4.6 4.5 -9 13.1 -9.6 19.1 -0.4 3.6 -0.1 5.4 1.6 8.6 2.1 4.1 7 8.2 9.7 8.2 1.3 -0.1 1.3 -0.2 -0.2 -1z m34.8 -9.1 c1.4 -5.3 3.2 -11.2 4 -13.2 0.8 -1.9 1.5 -5.5 1.7 -8.1 0.1 -2.4 1.3 -7.3 2.6 -10.5 1.4 -3.3 2.4 -6.8 2.4 -7.8 0 -1.1 1.8 -7.3 4 -14.1 2.2 -6.6 3.9 -12.2 3.8 -12.3 -0.2 -0.1 -1.5 0.3 -3.1 0.8 -2.2 0.7 -2.9 1.5 -2.9 3.1 0 1.2 -1.4 6 -3.1 10.6 -1.6 4.6 -5.4 16.8 -8.3 26.9 -4.2 14.8 -5.8 19.3 -8.3 22.5 -2.3 3 -2.6 3.9 -1.5 3.9 1.3 0 1.5 0.7 1 4.2 l-0.5 4.1 2.8 -0.3 c2.7 -0.3 2.8 -0.5 5.3 -9.9z m27.3 9 c-1.8 -1.8 -1.3 -10.1 1.3 -18.5 5.8 -19.3 5.6 -18.8 4.4 -21.3 -1.5 -2.9 -3.4 -3.7 -6 -2.6 -1.2 0.5 -1.5 0.8 -0.9 0.8 2.3 0.2 1.3 10.5 -2 20.3 -4.4 13.1 -4.8 16.8 -2.4 20 1.3 1.5 2.8 2.4 4.4 2.4 1.8 0 2.1 -0.3 1.3 -1.1z m25.4 0 c-2.5 -2.5 -0.2 -15.6 7 -39.5 0.8 -2.8 0.7 -3 -1.3 -3 -3.8 0 -5 1 -5 4 0 4 -6.1 24.9 -8.3 28.6 -1.7 2.8 -1.8 3.1 -0.5 3.9 0.9 0.5 1.5 1.3 1.5 1.8 0 1.8 3.8 5.3 5.8 5.3 1.4 0 1.5 -0.3 0.7 -1.1z m32.5 -3.4 c-0.8 -0.5 -1.2 -5.5 -1.5 -16.9 -0.5 -21.7 -0.5 -22.1 -4.4 -22.1 l-3 0 0.5 14.8 c0.5 16.4 1.5 25.6 3.1 27.5 0.8 1.1 1.5 1 3.7 -0.6 1.9 -1.4 2.4 -2.2 1.6 -2.6z m37.8 2.7 c-1.4 -1.1 -2.8 -3.4 -3.4 -5.3 -1.2 -4.3 -1.2 -12.6 0 -13.3 0.5 -0.3 0.9 -2 0.9 -3.6 0 -1.7 1 -5.4 2.3 -8.2 2.9 -6.6 1.2 -6 -3.8 1.3 -4.4 6.4 -7.1 14.2 -6.3 18.7 0.8 4.3 4.2 8.8 7.8 10.6 4.3 2.2 5.4 2.1 2.4 -0.2z m155.6 0.7 c-2.2 -2.2 -1.2 -11 3 -25.9 2.3 -8.1 4.1 -15.1 4.1 -15.6 0 -0.5 -1.5 -0.9 -3.2 -0.9 -3.1 0 -3.2 0.1 -3.2 3.4 0 1.9 -1.8 9.7 -4.1 17.4 -2.3 7.7 -4.1 14.9 -4.1 16.1 0 2.7 3.8 6.6 6.5 6.6 1.5 0 1.7 -0.3 0.9 -1.1z m24.3 -6.4 c1.1 -4.2 3 -10.2 4.3 -13.4 1.3 -3.3 2.3 -7.4 2.2 -9.3 -0.1 -1.9 0.5 -5.5 1.3 -8.2 0.7 -2.5 1.4 -4.8 1.4 -5 0 -0.2 -1.5 -0.3 -3.2 -0.3 -3 0 -3.2 0.2 -3.2 3 0 5.2 -5.5 23 -8.8 28.5 -1.7 2.9 -2.7 5.4 -2.2 5.5 0.5 0.2 1 1.7 1 3.4 0 2.8 0.3 3.1 2.6 3.1 2.5 0 2.7 -0.3 4.6 -7.4z m27.8 -0.1 c0.1 -5.9 0.7 -9.5 3.4 -17.9 4 -12.6 4.2 -14.7 1 -17.1 -2.6 -2.1 -6.1 -2.7 -4.2 -0.8 2 2 1.2 8.6 -2.4 20 -4.8 15.2 -5 16.4 -3.4 19.6 1.4 2.6 2.5 3.5 4.6 3.7 0.5 0.1 0.9 -3 1 -7.4z m28.3 6.9 c-5.8 -1.5 -3.8 -22.7 3.3 -35.3 2.8 -5.1 1.7 -5.1 -2.9 0 -4.6 5.1 -7.1 9.8 -9.2 18.1 -0.9 3.6 -2 7.3 -2.4 8.2 -0.5 1.1 -0.2 1.5 0.8 1.5 0.8 0 1.5 0.5 1.5 1.1 0 2.2 5.7 7.1 8.1 7 1.5 -0.1 1.8 -0.3 0.8 -0.5z m26.7 -0.5 c-2.1 -2.1 -1.3 -12.7 2 -25.4 2.8 -10.7 13.2 -46 14.6 -49.8 0.5 -1.3 0 -1.3 -4.1 -0.5 -4.4 0.9 -4.5 0.9 -4.5 4.4 0 1.9 -1.3 8 -2.8 13.6 -1.5 5.6 -3.3 11.8 -3.7 13.7 -0.5 1.8 -1.5 3.4 -2.2 3.4 -0.9 0 -1.3 1.2 -1.3 3.7 0 5.4 -3.3 17.4 -6.4 23.6 -2.4 5 -2.5 5.4 -0.9 5.4 1.2 0 2.1 1 2.8 3.2 1.1 3.3 3.9 5.9 6.3 5.9 1.1 0 1.1 -0.3 0.3 -1.1z m-583.1 -11.6 c0.9 -1 2.2 -1.8 2.8 -1.8 0.6 0 2.3 -0.5 3.6 -0.9 2.3 -0.9 2.4 -1.1 1 -2.4 -1.2 -1.3 -1.8 -1.3 -4.3 -0.3 -5.4 2.3 -8.7 9.7 -6.7 15.4 0.6 1.9 0.8 1.5 1.4 -3 0.4 -3 1.3 -6 2.2 -7z m417.3 -7.1 c-1 -0.3 -1.4 -1.6 -1.4 -5.5 0 -2.9 -0.6 -13.8 -1.5 -24.2 -0.8 -10.4 -1.2 -21.1 -1 -23.7 l0.5 -4.8 -4.5 0 -4.4 0 0 3.1 c0 1.7 -1 5.3 -2.3 8 -2.9 6.3 -2.9 7.1 0.5 7.1 1.5 0 2.7 0.3 2.7 0.7 0 0.4 0.6 8 1.4 17 0.7 9 1.4 21.2 1.4 27.2 l0.1 10.9 4.9 -7.7 c3.7 -5.8 4.6 -7.8 3.6 -8z m-355.1 -6.5 c1.3 0 1.7 -0.6 1.7 -2.7 0 -1.5 -0.2 -2.7 -0.5 -2.7 -0.2 0 -1 1.3 -1.8 2.7 -0.8 1.5 -2.2 2.7 -3.1 2.7 -1.2 0 -1.8 0.8 -2.1 2.8 l-0.5 2.8 2.2 -2.8 c1.3 -1.5 3 -2.8 4 -2.8z m281 -10 c0.7 -2.2 0.5 -3.1 -0.8 -4.7 -1.6 -2.1 -1.6 -2.1 -1.9 3.5 -0.4 5.9 0.8 6.4 2.7 1.2z m-195.1 -4.8 c-0.5 -3.4 -2.9 -3.9 -6.3 -1.5 -2.9 2 -3 2.2 -1 2.4 1.4 0.2 2 0.9 2 2.4 0 1.1 0.3 2.4 0.6 2.7 1.1 1.1 4.9 -4 4.6 -6.1z m36.3 5.5 c1.3 -1.3 1.5 -4.9 0.3 -5.6 -0.5 -0.3 -1 0.4 -1.3 1.5 -0.2 1.1 -0.7 2.7 -1.1 3.6 -0.7 1.8 0.5 2.1 2.1 0.5z m119.9 -5.4 c0 -1.5 -0.4 -2.5 -0.9 -2.5 -0.5 0 -0.9 1.7 -0.9 3.9 0 2.8 0.3 3.4 0.9 2.4 0.5 -0.7 0.9 -2.4 0.9 -3.8z m-271.3 -10.9 c-0.1 -4.3 -0.2 -4.5 -0.9 -2.1 -0.6 2.4 -0.3 6.8 0.6 6.8 0.2 0 0.4 -2.2 0.3 -4.7z m282.7 -0.4 c14.4 -3.6 30.8 -14.7 35.8 -24.5 2.1 -4 3.1 -4.7 14.1 -10.4 59.1 -31 137.1 -50 226.8 -55.2 8.5 -0.5 32.2 -0.9 52.7 -0.9 26 0 38.2 -0.4 40.4 -1.1 4.7 -1.6 8.7 -5 10.7 -9.3 l1.9 -3.8 0 -238.5 0 -238.5 -1.9 -3.9 c-2.7 -5.6 -8.4 -8.9 -14.4 -8.2 -3.8 0.5 -4.4 0.3 -4.8 -1.3 -0.4 -1.3 -1.3 -1.7 -3.6 -1.7 -1.7 0 -4.4 -0.3 -6 -0.5 -2.4 -0.5 -3 -0.3 -3.4 1.4 -0.3 1 -1.1 1.9 -1.7 1.9 -1 0 -1.3 -2.7 -1.3 -14 l0 -14.1 -8.3 4 c-13.2 6.3 -22.7 8.6 -34.2 8.6 -14.3 -0.1 -20 -2.8 -25 -11.9 -2.5 -4.6 -2.7 -5.4 -2.7 -15.3 0 -9 0.3 -11.1 2.2 -15.2 1.2 -2.6 3.9 -6.4 6.1 -8.4 3.9 -3.6 4 -3.6 11.1 -3.6 6.4 0 7.4 0.3 10.3 2.4 3.9 3.1 7.6 8.2 9.3 12.7 2.1 5.8 1.7 -0.3 -0.5 -6.5 -4.9 -14.2 -18 -26.3 -28.2 -26 -6.3 0.1 -30.4 4.4 -44.7 8.1 -32 8 -73 25 -103.5 42.9 -28.2 16.6 -63.5 43.4 -84.6 64.3 -10.2 10.1 -10.2 10.1 -18.9 7.8 -9.3 -2.4 -18.9 -3.2 -26.9 -2.2 -9.2 1.1 -19.6 4.4 -25.7 8.2 -5.4 3.4 -8.8 3.3 -17.3 -0.5 -8 -3.4 -17.2 -5.1 -27.9 -5.1 l-9.3 0 -7.7 -7.6 c-16.3 -16.1 -43 -37.7 -63.2 -51.3 -50.1 -33.5 -111.2 -57.4 -164.1 -64.5 -8.1 -1.1 -8.4 -1.1 -13.2 1.1 -11.7 5.5 -21.4 19.1 -23 32.1 -0.4 2.9 -0.3 3.7 0.3 2.2 2.3 -6.9 6.3 -12.4 11.3 -15.8 3 -2 4.5 -2.4 10.1 -2.4 6.1 0 6.7 0.2 10.2 3.1 2.2 2 4.6 5.4 6.2 8.9 2.4 5.1 2.6 6.7 2.6 14.8 0 11.2 -2.1 16.8 -8.3 22.2 -5.8 5.1 -8.5 5.7 -22 5.3 -9.9 -0.4 -12.5 -0.8 -19.2 -3.3 -6.3 -2.3 -15.2 -6.1 -21 -9.1 -0.5 -0.2 -0.7 5.8 -0.7 13.3 0 11.6 -0.2 13.7 -1.4 13.7 -0.7 0 -1.4 -0.6 -1.4 -1.4 0 -1.1 -1.3 -1.4 -6.4 -1.4 -5.6 0 -6.4 0.2 -6.4 1.7 0 1.5 -0.8 1.7 -6.2 2.1 -7.3 0.4 -11.1 2.6 -13.8 8 -1.8 3.5 -1.8 6.3 -1.8 241.9 0 230.2 0.1 238.5 1.7 242 0.9 2 2.8 4.7 4.3 6.1 5.6 5.3 5.8 5.3 49.4 5.3 51.8 0 78.6 1.6 115.2 6.9 60.1 8.6 111.4 23.9 155.6 46.1 l18.1 9.2 2.4 5 c1.4 2.8 3.1 5.6 3.9 6.3 0.9 0.8 1.5 2.6 1.5 5.1 0 5.2 1.6 6.4 8.1 6.1 4.2 -0.3 6 0.1 9.6 2.1 12 6.4 28 8 42.6 4.4z m171.7 -6.9 c1.6 -1.6 1.4 -4.2 -0.6 -5.2 -1.3 -0.7 -2 -0.5 -3.2 0.7 -1.5 1.6 -1.9 3.9 -0.8 4.9 0.9 1 3.4 0.7 4.6 -0.5z"/>
 </g>
 <g fill="#5783ad">
  <path d="M263.4 0.3 c127.6 -0.2 336.3 -0.2 463.6 0 127.4 0.1 23 0.2 -232.1 0.2 -255 0 -359.2 -0.1 -231.5 -0.2z"/>
 </g>
 <g fill="#0485d4">
  <path d="M489.2 769.4 c-0.7 -0.5 -1.5 -3.2 -1.7 -6.5 -0.5 -5.4 -0.5 -5.7 0.9 -4.5 1.5 1.1 1.5 -5.2 1.7 -88.9 l0.3 -90.2 4.1 -0.3 c3.8 -0.2 4.4 0.1 10.3 5.4 l6.1 5.5 0 84.8 c0 79 0.1 84.8 1.5 83.6 1.4 -1.2 1.5 -0.8 0.9 4.1 -0.3 2.9 -0.7 5.4 -0.9 5.6 -1.7 1.7 -20.8 2.9 -23.1 1.4z"/>
  <path d="M541.6 588.1 c-0.7 -0.4 -3.6 -2.4 -6.4 -4.8 -2.7 -2.4 -5.8 -4.9 -6.8 -5.7 -9.2 -7.2 -20.2 -17 -24.8 -22 l-5.5 -6.2 -8.9 2.8 c-12.8 4.2 -18.5 5.2 -29.8 5.2 -11.4 0 -21.3 -2.4 -29.1 -6.8 -3 -1.6 -6 -2.6 -8.3 -2.6 -7.7 0 -19.6 -4.3 -29.7 -10.7 -11.3 -7.2 -22 -19.8 -25.8 -30.3 -1 -3 -2.1 -4.5 -3.4 -4.8 -1.5 -0.3 -32.5 -4 -57.6 -6.9 -29.2 -3.4 -52.3 -19.8 -61 -43.2 -1.6 -4.3 -2 -7.3 -2.1 -16.6 -0.1 -11.2 -0.1 -11.4 -3 -15.9 -11.8 -18.1 -9 -42.6 6.6 -58.9 l4.7 -5 0.5 -7.1 c1.5 -24.5 25.1 -49.7 52.9 -56.4 4.2 -1 4.8 -1.5 6.8 -5.4 3.3 -6.3 14.6 -17.6 22.6 -22.8 14.3 -9.2 26.9 -12.9 46.4 -13.5 l13.2 -0.5 4.5 -3.9 c6.4 -5.6 17.5 -10.9 29.3 -14 3.1 -0.8 3.7 -1.3 2.9 -2.2 -1.2 -1.5 0 -2.1 6.4 -2.9 3.4 -0.5 5 -0.3 6.2 0.8 1.2 1 4.5 1.5 13.3 1.8 12.4 0.5 19.1 1.8 27.9 5.8 l5.2 2.3 2.6 -1.9 c1.5 -1.1 2.9 -1.9 3.2 -1.9 0.3 0 1 3.4 1.5 7.6 l1.2 7.5 -4.2 4.3 c-2.3 2.3 -5 4.2 -5.9 4.2 -1 0 -3.5 -1 -5.7 -2.2 -8 -4.4 -17.3 -6.4 -30.8 -6.3 -18.8 0.1 -29.9 3.6 -44.3 14 l-7.5 5.5 -12.9 0.3 c-27.1 0.6 -45.4 9.6 -57.5 28.3 -2.6 4.1 -5.7 8.1 -6.8 8.8 -1.2 0.7 -5.4 2.2 -9.3 3.3 -25.4 6.8 -42.3 26.4 -42.3 49 0 4.2 -0.4 4.8 -5.9 11.1 -8.3 9.3 -11.7 16.3 -11.7 24.7 -0.1 8.1 1.8 13.3 7.8 21 l4.4 5.9 -1.5 6.3 c-2.7 11.2 0.4 21.9 9.1 31.5 9.4 10.4 21 15.5 41.2 18.1 6.4 0.7 19.3 2.5 28.8 4.1 22.3 3.4 21.2 3.4 21.2 -0.7 0.1 -1.9 0.5 -5.2 0.8 -7.3 l0.7 -3.8 -6 -0.5 c-7.3 -0.6 -14.9 -2.7 -18.9 -5.2 -2.5 -1.5 -3 -2.3 -3 -5.3 0 -1.8 0.5 -3.9 1.2 -4.4 2.1 -1.6 7.2 -1.4 12.8 0.7 3 1.2 8.1 2.3 11.3 2.5 l6 0.5 2.2 -4.4 c1.1 -2.4 3.8 -6.9 6 -9.9 4.8 -6.8 18.1 -19.5 20.2 -19.5 0.9 0 2.2 -1 2.6 -2.1 0.5 -1.2 2.4 -2.9 4.1 -3.7 1.6 -0.9 4.2 -2.3 5.7 -3.1 3.4 -1.7 11.3 -2.6 11.3 -1.2 0 0.5 1 1 2.3 1 2.4 0 5.8 1.5 7 3.2 0.4 0.5 0.7 2 0.7 3.4 0 1.7 -0.5 2.4 -1.5 2.4 -0.9 0 -5.8 2.4 -11 5.4 -37.8 22.2 -47.4 60.1 -21.7 85.6 8.8 8.9 20.4 14.2 31 14.2 2.5 0 4.8 0.8 7.5 2.7 7.1 4.8 13.2 6.5 24.2 7.1 8.5 0.4 11.3 0.1 19.6 -1.9 9.3 -2.3 20.1 -6.2 27.2 -9.8 4.2 -2.1 6 -1.7 9.9 1.9 3.2 2.9 4.5 8.3 2.8 10.3 -0.7 0.8 -0.8 1.9 -0.4 2.7 0.9 1.6 13 14.2 13.6 14.2 0.9 0 12.2 9.3 13.4 11.2 0.8 1.3 1.4 4.1 1.4 7.7 0 4.2 0.4 5.8 1.4 6.2 0.9 0.4 1.4 1.8 1.4 4.1 0 3.5 0 3.5 -3.4 3.4 -1.9 0 -4.1 -0.3 -4.8 -0.5z"/>
 </g>
 <g fill="#047bc7">
  <path d="M510.1 761.4 c-0.1 -0.9 -0.4 -39.9 -0.5 -86.7 l-0.5 -85.1 -2.1 -2.3 c-1.1 -1.2 -2.7 -2.2 -3.5 -2.2 -0.8 0 -2.3 -0.7 -3.1 -1.7 -1.5 -1.5 -6.2 -2.1 -7.4 -0.7 -1.1 1 -1.1 6.3 -1.2 88.9 -0.1 56.2 -0.4 85 -1 85 -0.6 0 -0.8 -30.5 -0.7 -90.9 0.3 -82.3 0.5 -91 1.7 -91.3 0.8 -0.1 5.4 3.3 10.2 7.5 l8.8 7.9 0 84.9 c0.1 74.9 0.2 84.8 1.4 83.3 1.3 -1.7 1.4 -1.6 1.4 1.5 0 2.6 -0.4 3.4 -1.6 3.4 -0.9 0 -1.6 -0.7 -1.7 -1.5z"/>
  <path d="M590 655.1 c-5.6 -1.5 -7.1 -3.4 -15.6 -19.8 -4.6 -8.9 -11.1 -20.1 -14.3 -25 -6.5 -9.9 -18.6 -22.6 -29.5 -30.9 -3.8 -3 -6.8 -5.7 -6.5 -6.2 0.3 -0.4 1.3 -0.4 2.2 0.2 0.9 0.5 2.5 0.9 3.5 0.9 0.9 0 2 0.5 2.3 1.2 0.5 0.9 0.6 0.9 1.1 0 0.3 -0.6 2 -1.2 3.8 -1.2 3.2 0.1 3.3 0.1 1.5 1.5 -1 0.7 -2.3 1.1 -2.9 0.9 -0.6 -0.3 -1.4 -0.1 -1.6 0.4 -0.4 0.5 -0.1 0.9 0.5 0.9 0.5 0 0.8 0.4 0.5 0.8 -0.8 1.2 3.2 5.7 4.5 5.2 0.6 -0.3 1.3 -0.1 1.5 0.3 0.5 1.1 6.2 2 6.2 1 0 -1 -1.1 -1.2 -4.1 -1 -1.5 0.2 -1.5 0 -0.5 -0.7 1.1 -0.8 1.2 -1.3 0.3 -2.8 -1.5 -2.4 -1.5 -2.7 0.4 -2.7 1.2 0 1 -0.4 -0.6 -1.8 -1.2 -1 -1.7 -1.8 -1.3 -1.8 0.5 0 0.2 -0.5 -0.5 -0.9 -1.1 -0.6 -0.7 -0.9 1.4 -0.9 2.1 0 2.4 -0.3 1.4 -0.9 -0.7 -0.5 -1 -0.9 -0.5 -0.9 0.5 0 -0.1 -0.8 -1.3 -1.8 -1.8 -1.5 -1.9 -1.8 -0.5 -1.8 2.5 0 -2.6 -4.7 -5.5 -5.1 -1.3 -0.1 -3.1 -0.9 -3.9 -1.6 -0.9 -0.8 -1.8 -1.5 -2.2 -1.5 -0.9 0 -5 -4.4 -4.5 -4.9 1 -1 -0.8 -3.9 -3.4 -5.4 -1.5 -0.9 -2.7 -1.4 -2.7 -1.1 0 0.3 -0.5 0 -1.3 -0.6 -0.7 -0.6 -1.1 -1.5 -0.8 -1.8 0.2 -0.5 -0.3 -0.7 -1 -0.7 -1.4 0 -1.9 -1.1 -1.5 -3.1 0.1 -0.4 -0.4 -1.3 -0.9 -2 -0.8 -1 -0.8 -1.2 0.2 -0.8 0.7 0.2 1.8 0.1 2.5 -0.4 1.1 -0.6 1.1 -1.2 0.3 -2.2 -0.6 -0.6 -0.8 -1.5 -0.5 -1.8 0.3 -0.4 -0.2 -0.6 -1.1 -0.6 -0.9 0 -1.5 -0.3 -1.1 -0.5 1.4 -1.4 -5.1 -5.4 -7.3 -4.5 -1.2 0.5 -1.3 0.4 -0.4 -0.7 1 -1.2 8.3 -4.2 10.3 -4.2 0.5 0 1.5 1.4 2.5 3 2 3.3 2.4 8.4 0.7 9.1 -0.7 0.3 -0.5 0.5 0.5 0.5 2.1 0.1 2 0.8 -0.5 2.8 -1.9 1.5 -1.9 1.7 -0.5 3.9 0.9 1.2 4.9 5.3 9 8.9 4.2 3.7 8.7 7.8 10.1 9.2 1.4 1.3 2.9 2.5 3.4 2.7 0.5 0.1 4.8 3.5 9.5 7.5 13.2 11 24 23.7 31.1 37 7.8 14.4 10 18.5 12 23.6 l2.2 5.2 8.9 0 9 0 -0.5 -3.9 c-0.7 -4.4 0.3 -5.7 4.5 -6.3 2.1 -0.2 2.8 -0.9 3.5 -3.3 0.7 -2.7 1.1 -3 4.1 -2.7 3.3 0.3 3.3 0.3 6.3 8.9 4.4 13 3.1 20.2 -4.5 23.9 -3.4 1.6 -32.7 2.9 -37.6 1.6z"/>
  <path d="M533.2 571.8 c0.3 -0.6 0.8 -1.2 1.2 -1.2 0.5 0 1.1 -0.8 1.4 -1.9 0.6 -1.8 0.6 -1.8 2.4 0.3 l1.8 2.1 -1.9 0.3 c-1.1 0.2 -1.7 0.7 -1.5 1.2 0.4 0.5 -0.5 0.7 -1.6 0.6 -1.5 -0.1 -2.1 -0.6 -1.8 -1.4z"/>
  <path d="M433.9 490.2 c-2.2 -0.8 -1.2 -5.5 2.4 -12.7 6.4 -12.2 18.7 -22.9 30.7 -26.6 4.8 -1.5 8.4 -1.8 21 -1.8 11.2 0 16.1 -0.4 19.1 -1.5 5.7 -2 7.9 -1.2 8.6 3 1.1 6.6 0.8 7.4 -2.6 8.1 -1.7 0.3 -3.2 0.9 -3.2 1.4 0 0.5 -6.4 0.8 -14.3 0.8 -20.4 0 -26.5 1.7 -41 11.6 -2.3 1.5 -6.4 5.4 -9.1 8.5 -5.5 6.4 -9.1 9.8 -9.9 9.7 -0.3 0 -1.1 -0.3 -1.6 -0.5z"/>
  <path d="M381.5 478.5 c0.7 -13.2 7 -25.7 19.4 -38.7 3.4 -3.7 3.8 -4.4 2.3 -4.4 -1.5 0 -1.8 -0.5 -1.5 -2.1 0.4 -1.7 1 -2.2 3.4 -2.2 2 0 2.9 0.4 2.5 1.2 -0.3 0.8 0.3 1 1.7 0.6 1.9 -0.4 1.9 -0.3 -0.6 2 -6.2 5.6 -13.7 13.1 -15 15 -0.7 1.1 -1.8 2.5 -2.4 3.1 -0.5 0.5 -2.3 3.7 -3.8 7 -2.8 5.8 -3.7 9.1 -5.6 19.9 l-0.8 5 0.4 -6.4z"/>
  <path d="M346.9 466.3 c-6.9 -2.4 -11.2 -5.5 -17.7 -12.5 l-5.8 -6.3 -7.3 -0.5 c-19.7 -1.5 -33.2 -12.8 -34.7 -29 l-0.5 -5.4 2.5 0.4 c1.9 0.2 2.8 1 3.4 3 2.4 7.4 10.3 14.8 18.7 17.4 2.3 0.7 8 1.5 12.6 1.5 l8.4 0.2 7.2 7.4 c5.6 5.7 8.8 8.1 13.6 10.3 6.9 3.3 8.5 5.1 2.7 3 -3.2 -1.1 -3.6 -1.1 -3.6 0 0 1.6 -1.1 1.7 -2.5 0.3 -0.7 -0.7 -1.4 -0.7 -2.4 0.2 -1.5 1.2 -1.9 3.2 -0.5 2.4 0.5 -0.4 0.6 0.3 0.4 1.3 -0.4 1.5 0.4 2.2 3.9 3.7 2.4 1.1 6 2.1 7.9 2.4 1.9 0.3 3.6 0.9 3.9 1.3 0.8 1.4 -5.3 0.7 -10.2 -1z"/>
  <path d="M370.1 456.2 c0.5 -1 1.2 -2.7 1.4 -3.7 1.1 -5.4 14.7 -21.3 25.1 -29.4 5.1 -4 7.1 -4.8 7.1 -3.1 0 0.5 0.9 0.5 2.5 -0.1 1.9 -0.7 2.2 -0.7 1.4 0.2 -0.8 0.8 -0.7 1.4 0.3 2.4 0.7 0.7 1 1.7 0.7 2.3 -0.4 0.6 -0.9 0.4 -1.5 -0.5 -1 -1.8 -4 -1.9 -4.7 -0.1 -0.3 0.7 -0.1 1.4 0.5 1.4 0.5 0 0.6 0.4 0.4 0.9 -0.3 0.5 -1.8 0.6 -3.4 0.3 -1.9 -0.4 -2.6 -0.3 -2.2 0.5 0.3 0.5 -0.5 1.2 -2.2 1.5 -1.5 0.4 -2.5 0.9 -2.3 1.3 0.2 0.5 -0.4 1.5 -1.3 2.3 -1.1 1 -1.8 1.2 -2.1 0.5 -0.2 -0.5 -2.1 0.7 -4.3 2.8 -3.2 2.9 -3.7 3.9 -2.7 4.5 1 0.6 0.9 0.8 -0.5 0.8 -2 0.1 -6.4 5.7 -10 12.7 -1.3 2.4 -2.5 4.5 -2.8 4.5 -0.2 0 0 -0.8 0.5 -1.9z"/>
  <path d="M540.7 429.6 c0 -2.4 0.6 -3.5 2.6 -5 5.4 -3.8 8.8 -1.5 6.2 4 -1.4 2.8 -1.4 3.1 0.1 3.4 0.8 0.3 -0.8 0.5 -3.6 0.5 l-5.3 0.1 0 -3.1z"/>
  <path d="M380.9 427.3 c-0.8 -0.5 -5.5 -4.9 -10.4 -9.8 -10.8 -10.7 -16.6 -14 -29.9 -16.5 -16.6 -3.3 -18.1 -3.6 -21 -5.4 -2.1 -1.3 -2.9 -2.4 -2.9 -4.2 l0 -2.4 14.8 0.5 c21.7 0.6 32.3 4.3 43 14.8 8.3 8.1 13.3 19.6 10.1 22.9 -1.3 1.3 -1.6 1.3 -3.5 0.2z"/>
  <path d="M426.1 423.7 c2.7 -3.1 1.1 -5.1 -5.2 -6.1 -1.2 -0.2 -2.4 -0.8 -2.7 -1.3 -0.7 -1 -6.4 0.8 -6.4 2 0 0.5 -0.7 0.5 -1.7 -0.1 -1 -0.5 -2.5 -0.6 -3.4 -0.3 -1.5 0.5 -1.5 0.5 0 -1.3 0.9 -1.1 2.9 -2.4 4.4 -3 1.5 -0.6 2.6 -1.3 2.6 -1.4 0 -0.1 -1.8 -2.9 -4 -6.1 -5.4 -8.3 -7.9 -15.7 -8.4 -26.1 -0.5 -9.9 0.9 -15.4 4.2 -15.4 2.4 0 3.1 1.5 5.4 11.8 2.4 10.3 7.7 21.7 12.6 27.2 l3.5 4 3.1 -1.5 c7.3 -3.4 27.3 -6.2 44.9 -6.2 l9.2 0 6.4 -4.9 c3.5 -2.7 8.6 -6 11.2 -7.2 5.4 -2.6 17.6 -6.6 22.8 -7.5 1.9 -0.3 4.3 -1.3 5.2 -2.1 3 -2.4 3.9 -10.2 2.8 -24 -1.6 -19.6 -0.1 -24.7 11.6 -40 4 -5.3 9 -13.1 11.1 -17.4 4 -8.4 7.2 -12.2 10.3 -12.2 2.9 0 3.3 2.6 1.9 10.9 -1.6 9.2 -4.4 15.2 -10.8 23.9 -9.5 12.9 -9.3 11.9 -9.3 34.2 0 10.7 -0.4 20.4 -0.7 21.4 -0.6 1.7 -0.3 2 2.7 2.5 1.9 0.3 5.2 0.5 7.2 0.5 3.4 0 3.8 0.3 4.3 2.5 0.3 1.4 1.5 3.5 2.8 4.9 1.4 1.4 2.4 3.3 2.4 4.4 0 1.7 -0.5 1.8 -12.4 1.8 -6.9 0.1 -14.2 0.5 -16.1 0.9 -20 4.3 -30.6 8.6 -43.5 17.8 l-6.4 4.4 -16.8 0.5 c-19.5 0.7 -26.1 1.7 -34.9 5.4 -3.4 1.5 -7 2.6 -7.7 2.6 -0.8 0 -2 0.5 -2.7 1.2 -0.7 0.5 -0.5 0.1 0.6 -1.2z"/>
  <path d="M283.1 394.9 c-2.8 -3.5 -4.9 -11.7 -4.9 -19.1 0.1 -5.4 0.5 -7.6 2.8 -12.4 5.9 -12.6 17.1 -19.9 35.6 -22.9 4.3 -0.7 8.7 -2 10 -2.9 1.5 -1.2 3.2 -4.4 5.2 -10.1 4.9 -14.3 10.3 -21.3 20 -26.1 8.8 -4.4 26.4 -4 31 0.6 3.4 3.4 1.5 4.4 -8.4 4.8 -13.1 0.5 -16.3 1.5 -21.2 6.2 -4.8 4.7 -6.6 8.1 -9.3 16.7 -2.4 8 -6.4 15.2 -10.3 18 -3.2 2.4 -9.6 4.3 -14.4 4.3 -5.4 0 -18.8 4.9 -23.1 8.4 -7 5.8 -10.1 15.4 -8.7 27 1.2 9.4 -0.5 12.3 -4.3 7.4z"/>
  <path d="M441 372 c-2.7 -2.7 -4.4 -6.4 -6.9 -15.1 -1.3 -4.4 -2.5 -8.3 -2.8 -8.8 -1.1 -1.6 -9.8 -5.2 -16.6 -6.7 -4.5 -1 -8.8 -1.4 -13.2 -1 -10.5 0.8 -17.2 5 -28.8 18.1 -6.5 7.5 -10 10.3 -11.6 9.3 -1.8 -1.1 -0.8 -4.4 4.5 -14.3 10.3 -18.9 19 -24.1 40.1 -24.2 9.3 0 15.9 1.4 24.6 5 1.4 0.5 1.5 0.1 1.5 -4.2 0.1 -12.4 5.2 -25.8 14 -36.3 6.7 -8 16.4 -16.2 19.2 -16.2 5.4 0 3.4 7.1 -5.1 17.7 -14.9 18.3 -17 29.2 -12.8 65.2 0.8 7.3 0.2 11.2 -2 12.5 -1.6 1.1 -2.3 0.9 -4.2 -1z"/>
  <path d="M485 373 c-0.3 -0.5 -1.4 -7.1 -2.4 -14.8 -2.3 -16.6 -2.1 -27.2 0.8 -33.7 2.1 -4.7 9.5 -13.2 12.7 -14.3 1.2 -0.5 1.9 -1.2 1.6 -1.6 -0.3 -0.5 0.1 -1.4 0.9 -2 2.5 -2.1 4.7 -7.4 6.2 -15.5 0.8 -4.3 2.2 -9.4 2.9 -11.3 2.2 -5 6.4 -10.7 9.3 -12.2 1.4 -0.7 4.4 -2.4 6.8 -3.8 6.8 -4.2 12.2 -5.2 27.6 -5.2 7.5 0 14 -0.4 14.3 -0.8 0.7 -1.3 -3.6 -4.4 -9.3 -6.4 -9.7 -3.6 -16.6 -4.8 -28.3 -4.9 -14.2 -0.1 -22.5 2.2 -32.5 8.8 -7.3 4.9 -7.5 4.9 -12.9 0.5 l-2.3 -1.9 2.5 0.5 c1.4 0.2 2.4 0 2.4 -0.4 0 -0.5 0.5 -0.8 1 -0.8 0.5 0 0.6 0.5 0.3 1.1 -0.4 0.6 -0.3 0.7 0.4 0.4 0.5 -0.4 0.7 -1.3 0.5 -2.1 -0.4 -0.9 -0.2 -1.3 0.4 -0.9 0.5 0.4 2.4 -0.6 4 -2.2 2.8 -2.6 2.9 -2.8 0.8 -2.2 -2 0.6 -2.1 0.5 -1 -0.8 0.6 -0.8 0.8 -1.5 0.4 -1.5 -0.5 0 -0.9 -0.6 -0.9 -1.4 0 -0.7 0.6 -1.4 1.5 -1.4 0.9 0 1.1 -0.3 0.5 -0.7 -0.5 -0.4 -0.9 -1.5 -0.7 -2.4 0.2 -1 -0.2 -2 -0.7 -2.4 -1.5 -0.9 10 -6.1 17.6 -8 13.2 -3.4 27.9 -3.3 41.5 0.3 4.4 1.2 5.2 1.2 6.6 -0.1 1.3 -1.3 2.1 -1.3 5.1 -0.5 3.9 1.2 6.2 3.3 4.6 4.3 -1.3 0.8 -1.2 2.3 0.3 2.3 0.7 0 3.9 1.7 7.1 3.7 l5.7 3.7 7.3 -1 c9.9 -1.4 18 -1.3 26.5 0.4 14.1 2.7 32.4 9.8 44.8 17.3 5.4 3.3 5.5 3.4 5.2 6.8 -0.2 2 0 3.5 0.4 3.5 0.5 0 0.7 0.6 0.7 1.4 0 0.7 0.7 2.7 1.5 4.5 1.1 2.3 2.1 3.2 3.6 3.2 1.2 0 2.1 -0.4 2.1 -0.8 0 -0.5 1.7 -1.1 3.8 -1.5 3.3 -0.6 4 -0.4 5.4 1.5 0.8 1.2 2.6 3.4 3.9 4.9 2.8 3.3 3.1 7.1 0.6 8.8 -1 0.7 -2.3 2.4 -2.9 3.7 -0.6 1.4 -1.5 2.4 -1.9 2.4 -0.4 0 -0.7 0.8 -0.7 1.8 0 1.4 -0.6 1.8 -2.6 1.8 -2.1 0 -3.3 -0.9 -5.8 -4.4 -7.1 -9.6 -18.7 -18.9 -31.9 -25.4 -14.3 -7.1 -28.2 -11.2 -40.4 -11.7 -9.5 -0.5 -16.1 0.7 -23.7 4.4 -8.3 4.1 -13.2 5.4 -20.3 5.4 -13.2 0 -25.5 3.4 -30.4 8.3 -4 4 -5.4 7.2 -6.9 15.9 -2.5 14.3 -4.4 17.7 -16.6 28.7 -7.6 6.9 -8.4 9.8 -9.2 30.1 -0.5 18.5 -1.2 21.3 -5 21.3 -1.2 0 -2.4 -0.4 -2.6 -0.7z"/>
  <path d="M644.4 299.7 c-0.6 -0.3 -1.2 -1.5 -1.2 -2.7 0 -1.5 0.6 -2.3 2.3 -2.7 2.8 -0.7 5.2 1.1 4.8 3.6 -0.3 1.9 -3.4 2.8 -5.9 1.8z"/>
  <path d="M395.1 288.9 c-5.4 -0.7 -12.5 -1.3 -15.5 -1.3 -5.9 -0.1 -8.8 -1.6 -6.4 -3.5 3 -2.5 7.4 -3.3 22.9 -3.8 18 -0.5 19.4 -1 30.7 -8.7 10.9 -7.5 11.8 0.9 1.1 10.2 -9.3 8 -15.2 9.3 -32.7 7.2z"/>
 </g>
 <g fill="#0473be">
  <path d="M629.6 649.9 l3.8 -4.2 -0.6 -5.9 c-0.4 -3.3 -1.2 -6.5 -1.9 -7.3 -0.7 -0.7 -1.1 -1.7 -0.8 -2.2 0.4 -0.5 0.2 -0.8 -0.3 -0.8 -0.8 0 -2.3 -3.3 -2.1 -4.7 0 -0.3 -0.5 -0.8 -1.3 -1.1 -0.8 -0.3 -1.1 0 -0.7 0.9 0.3 0.6 -0.1 1.3 -0.7 1.3 -0.6 0 -0.8 0.3 -0.5 0.6 1.1 1.1 -1.4 3 -3.9 3 -2.8 0 -5.4 2.3 -3.4 3 0.9 0.4 0.9 0.5 0.1 0.5 -0.6 0.1 -1.2 1 -1.2 2.1 0 3.4 -1.4 0.9 -6.2 -11.1 -6.1 -15.2 -8.3 -22.7 -9 -30.4 -0.5 -6.3 -0.6 -6.5 -3.4 -7.5 -5.2 -1.9 -19.3 -11.7 -25.2 -17.5 -6 -5.9 -14.8 -18.3 -15.8 -22.3 -0.7 -2.6 1 -4.8 3.8 -4.8 1.5 0 3.7 1.9 8 7.1 12.4 14.7 28.8 24.9 50 30.8 6.3 1.7 11.2 2.4 21.3 2.7 11.6 0.5 14.1 0.3 21.3 -1.5 23.9 -5.9 40.3 -20.2 45.4 -39.6 0.7 -2.8 1.2 -5.4 0.9 -5.8 -0.3 -0.4 -2.2 -0.9 -4.3 -1.3 -2.2 -0.4 -12.4 -2.6 -23 -5.1 -18 -4.2 -34.3 -7.3 -46 -8.6 -6 -0.7 -9.7 0 -28.4 5.6 -7.4 2.3 -14.8 4.4 -16.3 4.9 -7.4 2.2 -21 3.6 -39.9 4.4 -13.3 0.5 -22.8 1.4 -26.1 2.3 -6.2 1.6 -7.3 1.7 -6.5 0.5 0.4 -0.5 0.2 -1.5 -0.4 -2.2 -0.8 -1 -0.7 -1.6 0.3 -2.5 1.2 -1.2 1.1 -1.7 -0.5 -4.4 -1 -1.6 -2.1 -2.6 -2.4 -2.2 -0.4 0.5 -1.8 0.6 -3.4 0.3 -1.9 -0.4 -2.3 -0.7 -1.4 -1.1 9.5 -4.1 22.7 -6.1 40.4 -6.1 21.5 0 35.9 -2.1 56.4 -8.3 25.5 -7.6 36.9 -7.2 80.1 3.1 14.1 3.3 17.1 3.7 27.2 3.8 11 0 11.5 -0.1 16.8 -2.9 7.4 -3.9 12.4 -8.4 17.7 -16 8.1 -11.3 12.7 -27.6 11.5 -40.2 -0.7 -7.3 -3.3 -16.7 -4.5 -16.7 -0.5 0 -3.4 2.4 -6.4 5.3 -6.2 5.9 -12.3 9.8 -19.1 12.2 -5 1.7 -4.9 1.5 -3.2 10.1 0.7 4 0.7 6.5 0 10.4 -1.2 5.6 -5 13.4 -6.9 14.2 -3.4 1.3 -3.8 -0.2 -4.2 -12.4 -0.4 -15.2 -1.5 -17.9 -13.1 -29.4 -4.5 -4.5 -8.9 -9.7 -9.8 -11.4 -1.9 -4.2 -1.9 -7 0.1 -7 2.3 0 17.1 9.2 22.8 14 l4.8 4.2 5.6 -2.9 c25 -12.6 34.3 -35.7 23.1 -58 -3.4 -7 -12 -16.1 -19.4 -21 l-5.8 -3.7 0 -4.6 c-0.1 -12.2 -5.4 -26.1 -13.1 -33.7 -8.7 -8.7 -20.1 -12.2 -35 -10.4 -8.7 1 -21.1 5.4 -25.5 9 -2.9 2.4 -2.9 2.4 -1.4 4.8 2 3.1 1.6 6.5 -0.8 6.9 -1 0.1 -5.4 -2.1 -10 -5 -16.2 -10.3 -26.4 -11.9 -40 -6.1 -5 2.2 -9.8 2.5 -11.2 0.9 -1.9 -2.3 1.5 -5.4 10.8 -9.9 7.1 -3.4 8.4 -3.8 16.5 -4.1 9.1 -0.4 14.2 0.6 21.9 4.5 l3.4 1.7 4.3 -3.6 c7.7 -6.4 16.1 -9.5 28.6 -10.6 3.8 -0.3 7 -0.7 7 -1 0 -0.2 -1.8 -2.8 -4.1 -5.7 -2.3 -2.9 -4.1 -5.5 -4.1 -5.8 0 -0.8 -9.9 -9.8 -15.7 -14.2 -15.1 -11.5 -42.5 -21 -60.1 -20.8 -8.3 0.2 -8.1 0.2 -6.9 -1.2 0.5 -0.7 2.9 -1.4 5.2 -1.4 2.3 -0.1 4.6 -0.5 5.2 -0.8 1.4 -0.8 4.3 -1 4.3 -0.3 0 0.3 1.5 0.6 3.4 0.7 1.9 0.2 3.7 0.8 4.1 1.5 0.5 0.6 3.1 1.7 6 2.4 2.8 0.6 5.5 1.5 6 1.9 0.5 0.4 1.8 0.7 3 0.7 1.2 0 5.7 1.7 10.1 3.7 4.4 2.1 8.8 4.2 9.8 4.6 2.8 1.3 21.2 15.1 21.2 15.9 0.1 1.6 10 11.3 11.1 10.9 0.9 -0.4 0.9 -0.5 -0.1 -0.5 -0.9 -0.1 -0.7 -0.5 0.5 -1.7 2.4 -2.1 4.3 -5.6 3 -5.6 -0.5 0 -0.7 -0.4 -0.5 -0.9 0.3 -0.5 0.2 -0.9 -0.4 -0.9 -0.5 0 -0.7 -0.6 -0.5 -1.4 0.8 -1.9 2.1 -1.7 2.9 0.5 0.6 1.7 0.8 1.7 1.9 0.5 0.9 -1.1 0.9 -1.5 0.2 -1.5 -0.6 0 -0.9 -0.4 -0.6 -0.8 0.3 -0.5 -0.4 -1 -1.4 -1.3 -1.4 -0.4 -1.8 -1 -1.4 -2.1 0.8 -2.2 -0.9 -3.8 -3.5 -3.3 -2.9 0.5 -2.9 2.1 0.1 3.9 1.4 0.9 2 1.7 1.5 2.1 -0.5 0.3 -1.5 -0.1 -2.3 -0.8 -0.8 -0.7 -2.6 -1.4 -4.2 -1.4 -1.5 0 -2.8 -0.5 -2.8 -1 0 -0.5 -1.1 -0.8 -2.4 -0.6 -1.6 0.2 -2.4 -0.2 -2.4 -0.9 0.2 -0.5 -0.2 -1.1 -0.7 -1.1 -0.5 0 -0.6 -0.4 -0.4 -0.9 0.3 -0.5 -0.2 -0.9 -1.1 -0.9 -1.4 0 -1.5 -0.2 -0.3 -0.9 1.2 -0.7 1.2 -0.9 -0.1 -0.9 -2.1 0 -2.9 -2.5 -1 -3 1.1 -0.3 1 -0.5 -0.5 -0.5 -3 -0.2 -3.4 -1.8 -1.3 -4.7 1.1 -1.5 1.5 -2.6 1 -2.6 -0.5 0 -0.9 -0.5 -0.9 -1 0 -0.5 0.5 -0.6 0.9 -0.4 0.5 0.3 0.9 0.2 0.9 -0.4 0 -1.5 -3.1 -2.6 -5.9 -2.1 -2.4 0.5 -2.5 0.3 -1.5 -0.9 1 -1.3 0 -2 -8.2 -6 -10 -4.9 -14.3 -6.4 -14.3 -4.9 0 1.2 -3.4 2.1 -4.2 1 -0.3 -0.5 0 -0.8 0.5 -0.8 0.5 0 1 -0.4 1 -0.8 0 -0.4 -1 -0.5 -2.3 -0.3 -1.7 0.3 -2.2 0.1 -1.8 -0.9 0.4 -0.9 -0.7 -1.5 -3.8 -2.4 -4.2 -1 -19.8 -3.4 -26.6 -4.1 -1.7 -0.2 0.4 -0.5 4.7 -0.5 4.3 -0.1 11 0.5 14.9 1.2 8.4 1.6 24.9 6.8 24.9 7.9 0 0.4 0.8 0.7 1.8 0.7 2 0 15.3 6.4 17.3 8.3 0.7 0.6 2.7 1.9 4.4 2.8 9.3 4.7 24.6 20.8 29.9 31.5 2.3 4.5 3.1 5.3 5.8 5.8 1.7 0.4 6.5 2.3 10.7 4.4 9.4 4.7 20.5 15.3 25.8 24.8 3.8 7 7.6 18.8 7.6 24 0 4.1 -0.1 3.9 7.9 10.3 10.6 8.5 18.1 20.3 21.8 34.2 2.1 7.7 2 21.6 -0.1 27.4 -1.5 4.3 -1.5 4.4 0.7 8.7 8.7 17.1 9.7 36.7 2.9 56.7 -7.6 22.4 -23.5 39.4 -42.3 45.2 l-5 1.5 -0.6 5.3 c-2.7 20.8 -18.9 40.7 -41.8 51.7 -14.6 6.9 -37.3 10.2 -55 7.7 -4.2 -0.5 -7.9 -0.8 -8.2 -0.5 -0.5 0.5 0.3 2.9 8 24.9 2.5 7.3 4.6 14.6 4.6 16.3 0 4 -2.7 9.3 -5.3 10.4 -1.1 0.5 -2 1.2 -2 1.5 0 0.5 -0.5 0.7 -1 0.7 -0.5 0 0.6 -1.9 2.8 -4.2z"/>
  <path d="M545.2 591.9 c-1.7 -1.7 -2.6 -3.2 -2.2 -3.2 0.5 0 2.3 1.5 4 3.2 1.7 1.7 2.6 3.2 2.2 3.2 -0.5 0 -2.3 -1.5 -4 -3.2z"/>
  <path d="M450.8 519.9 c-2.8 -2.3 -1.9 -3.2 5.5 -5 3.3 -0.8 13.2 -5 22 -9.3 17 -8.2 23.8 -10.2 24.9 -7.2 1.5 4.1 -20 18.7 -32 21.9 -7.7 2 -17.7 1.8 -20.3 -0.4z"/>
  <path d="M539.2 495.3 c-8 -0.9 -16.1 -3.2 -17.6 -5 -1 -1.2 -1 -1.7 0.1 -2.7 1 -1 5.8 -1.5 19.4 -2.3 20.6 -1 30.3 -2.4 41.3 -5.9 10.4 -3.3 15.4 -3.7 24 -1.9 14.1 2.9 29 1.5 43.9 -4 10.2 -3.8 13.4 -1.2 6.4 5 -4.9 4.3 -10.3 7 -18.9 9.6 -7.3 2.3 -10.3 2.4 -38.6 1.6 -8.3 -0.3 -13.2 0 -14.1 0.6 -5.5 4.3 -28.6 6.7 -45.8 4.9z"/>
  <path d="M356.6 468 c-5.1 -1 -6.3 -2.2 -1.5 -1.5 2 0.4 5.4 0.6 7.5 0.6 2.1 0 3.8 0.5 3.8 0.9 0 1.1 -4.3 1 -9.9 -0.1z"/>
  <path d="M471.4 460.9 c1.9 -1.9 2.7 -2 18.4 -2.2 10.4 0 16.7 -0.5 17.1 -1.1 0.4 -0.5 2.1 -1.4 3.8 -1.9 1.7 -0.5 2.4 -1 1.6 -1.1 -1.8 -0.1 -2 -0.8 -0.7 -2.8 1 -1.5 -0.4 -2.7 -3.4 -2.7 -1.2 0 -2.1 -0.4 -2.1 -0.9 0 -0.5 0.6 -0.9 1.4 -0.9 3.6 0 21.1 -10.8 32 -19.6 5.4 -4.4 7.4 -5.1 5.3 -1.7 -1.7 2.6 -1.9 4.2 -0.3 4 2.4 -0.3 4.4 0.1 3.9 0.9 -0.9 1.5 3.3 2.1 16.2 2.5 15.2 0.5 21.6 -0.6 32.7 -6.1 15.3 -7.5 28.9 -23 45 -51 4.3 -7.4 7.3 -9.4 9.1 -6 1.5 2.7 -2.2 15.2 -7.7 26.6 -10.5 21.1 -26 37 -43.4 44.2 -11.6 4.8 -16.2 5.6 -31.1 5.6 -11.4 0 -14.6 -0.4 -20.1 -2 -3.5 -1.1 -6.9 -2 -7.4 -2 -0.6 0 -3.6 2.1 -6.7 4.7 -3.1 2.5 -9.5 6.5 -14.2 8.8 l-8.6 4.1 -17.7 0.7 c-9.7 0.4 -19.3 0.9 -21.3 1.3 l-3.6 0.5 1.9 -2z"/>
  <path d="M356.7 457.7 c-2.7 -0.6 -5.4 -1.6 -5.9 -2.3 -0.8 -0.9 -0.7 -1 0.7 -0.5 4.5 1.3 10.3 2.4 12.9 2.4 1.5 0 3.2 0.5 3.4 0.9 0.8 1.3 -5.3 1 -11.2 -0.5z"/>
  <path d="M652.8 440.2 c-0.5 -1 5.4 -6.7 12.6 -12.1 14.2 -10.5 25.8 -24.2 29 -34.2 2.5 -7.6 1.6 -19 -2.1 -26.9 -1.6 -3.4 -4.4 -8.2 -6.2 -10.6 -4.8 -6.6 -2.3 -8.4 5.2 -3.7 11 7 18.3 23 16.7 36.4 -2 15.8 -12.1 30.6 -28.4 41.7 -10.9 7.3 -25 12.2 -26.9 9.3z"/>
  <path d="M283.4 426.2 c-1 -2.2 -1.7 -5.9 -1.7 -8.8 0 -4.4 0.2 -5.1 1.8 -5.1 1.1 0 2.3 1 3 2.5 1.5 3.3 0.7 4.2 -1.6 2 -1.8 -1.6 -1.8 -1.6 -1.8 1.9 0 1.9 0.8 5.3 1.8 7.4 0.9 2.1 1.4 3.8 1 3.8 -0.4 0 -1.5 -1.7 -2.4 -3.8z"/>
  <path d="M292.3 426.8 c-4.4 -4.1 -2.6 -4.1 2 0 2 1.7 3.1 3.2 2.5 3.2 -0.6 0 -2.6 -1.5 -4.5 -3.2z"/>
  <path d="M284.9 396.4 c0 -0.5 0.5 -0.9 0.9 -0.9 0.5 0 0.9 -1.4 1 -2.9 0 -2.8 0.1 -2.8 0.9 -0.9 0.5 1.4 0.5 2.7 -0.1 3.9 -1 1.8 -2.7 2.4 -2.7 0.8z"/>
  <path d="M562.7 391.4 c0.3 -0.3 -0.5 -1.6 -1.7 -2.9 -1.2 -1.4 -2.2 -2.7 -2.2 -3.1 0 -0.5 -1.1 -0.7 -2.4 -0.8 -2.3 0 -2.3 -0.1 -0.7 -0.8 1.6 -0.6 1.5 -0.7 -0.9 -1.1 -2.6 -0.5 -2.6 -0.5 0.5 -0.6 l3.2 -0.1 -2.3 -1.8 -2.3 -1.8 8.4 0 c5.9 0 9.5 -0.5 11.8 -1.5 1.9 -0.9 8.5 -6.9 15.2 -13.6 6.5 -6.7 12.5 -12.2 13.3 -12.2 1.8 0 2.7 2.2 2 5.3 -1 4.3 -7.4 15.9 -11.4 20.8 -5 6 -13.5 12.7 -17.8 13.9 -3.6 1 -13.5 1.3 -12.6 0.4z"/>
  <path d="M401.6 385.8 c-0.4 -0.3 -0.6 -3.8 -0.6 -7.7 0 -8.3 1.7 -13.4 4.4 -13.4 2.3 0 3.2 1.6 4.6 8.2 0.5 2.7 1.3 5.8 1.5 6.8 0.4 1.3 0.2 1.5 -0.5 0.9 -0.5 -0.5 -1.5 -3.6 -2.2 -6.8 -0.8 -4.3 -1.6 -6 -2.7 -6.2 -2.6 -0.5 -4.5 5.5 -4.1 12.7 0.3 3.4 0.4 6.2 0.3 6.2 -0.1 0 -0.5 -0.3 -0.7 -0.6z"/>
  <path d="M545.9 374.2 c0.5 -2 0.7 -7.7 0.6 -12.7 -0.1 -7.7 0 -8.4 0.7 -5 1 4.8 0.3 17.5 -1.1 19.8 -0.7 1.2 -0.7 0.6 -0.3 -2.1z"/>
  <path d="M485 373.2 c-0.7 -1.9 0.1 -3.2 1.6 -2.5 3.4 1.4 5.5 -6.8 5 -19.9 -0.4 -9.9 0 -14.2 1.1 -14.2 0.6 0 0.8 0.8 0.5 2.1 -0.3 1.2 -0.5 8.1 -0.6 15.4 0 7.3 -0.5 13.5 -0.9 13.9 -0.5 0.3 -0.6 0.9 -0.3 1.4 0.8 1.4 -2.2 5.4 -4.1 5.4 -0.9 0 -2 -0.6 -2.3 -1.5z"/>
  <path d="M446.1 362.7 c-0.3 -3.6 -1 -12.1 -1.6 -18.6 -1 -10 -1 -12.2 0 -13.2 1 -1 1.2 -0.6 0.7 1.8 -0.5 2.7 0.1 11.4 2 27.9 0.5 4 0.5 7.6 0.2 8 -0.5 0.5 -1 -2.3 -1.3 -5.9z"/>
  <path d="M481 338.7 c0.3 -6 0.9 -10.7 1.6 -12.1 1.3 -2.3 1.5 -2.8 1.7 -4.5 0.1 -1.1 14.6 -16.3 15.5 -16.3 0.4 0 1 0.9 1.5 2 1.2 2.6 -1.1 5.3 -4.4 5.3 -3.2 0 -8.7 5.2 -11.7 10.9 -1.7 3.4 -2.2 5.8 -2.4 14.3 -0.3 6.1 -0.7 10.2 -1.3 10.2 -0.6 0 -0.8 -3.4 -0.5 -9.7z"/>
  <path d="M550.2 326.9 c0.9 -1.5 3.4 -4.8 5.4 -7.5 7 -9.1 11.2 -20.3 11.3 -29.3 l0 -3.4 -1.9 1.8 c-1.1 1 -1.6 2.2 -1.3 2.7 0.3 0.5 0.1 1 -0.4 1 -0.5 0 -1 -0.6 -1 -1.4 0 -2.8 -2.4 -0.2 -5.4 5.7 -3.5 7.1 -9 15.6 -10.1 15.6 -0.5 0 0.6 -2.2 2.4 -4.7 1.8 -2.6 4.6 -7.8 6.3 -11.4 3.4 -7.3 6.8 -11.1 9.9 -11.1 2.9 0 3.3 2.6 1.8 11.2 -1.4 8 -5.9 18 -10.4 23.2 -1.5 1.7 -3.1 3.6 -3.6 4.3 -0.5 0.6 -1.4 2.2 -2 3.4 -0.5 1.3 -1.5 2.3 -1.9 2.3 -0.5 0 -0.1 -1.1 0.7 -2.4z"/>
  <path d="M382.6 304.9 c0.7 -2.8 -2.7 -3.9 -14.3 -4.4 -5.9 -0.3 -10.5 -0.9 -10.3 -1.3 0.6 -1.2 15.6 -1 19.7 0.2 4.2 1.1 7.2 3.9 6.4 5.8 -0.8 2 -2.1 1.7 -1.5 -0.4z"/>
  <path d="M638.2 296.7 c-13.3 -6.4 -21.6 -8.3 -39 -9 -14.6 -0.5 -15.4 -0.6 -15.4 -2.4 0 -3.6 9.1 -5.9 24 -5.9 15 0 27.2 4.1 38.1 12.7 3.5 2.8 4.6 4.3 4.4 5.7 -0.5 3.1 -3.9 2.7 -12.1 -1.2z m10.7 2.2 c1 -1 -0.3 -2.2 -1.6 -1.6 -0.7 0.4 -1.1 0.9 -0.8 1.4 0.5 1 1.6 1.1 2.4 0.3z"/>
 </g>
 <g fill="#093766">
  <path d="M498.3 797.1 c0.4 -0.9 -1.4 -1.5 -7.7 -2.3 -8.9 -1.2 -17.6 -3.7 -22.1 -6.5 -3.3 -2 -5.9 -2.2 -7.4 -0.6 -1.6 1.6 -1.5 -3.7 0.3 -5.6 1.2 -1.3 1.2 -1.7 0.1 -3.2 -1.1 -1.5 -1.5 -1.6 -3.6 -0.6 -3.3 1.5 -6 1.4 -6 -0.2 0 -0.6 -0.6 -1.8 -1.5 -2.4 -0.8 -0.6 -2.5 -3.4 -3.9 -6.3 l-2.4 -5 -18.1 -9.2 c-44.2 -22.2 -95.4 -37.5 -155.6 -46.1 -36.7 -5.3 -63.4 -6.9 -115.2 -6.9 -43.5 0 -43.7 0 -49.4 -5.3 -1.5 -1.4 -3.4 -4.1 -4.3 -6.1 -1.6 -3.5 -1.7 -12 -1.7 -244.8 0 -238.4 0 -241.1 1.8 -244.7 2.9 -5.7 6.5 -7.6 15 -8 l7.3 -0.4 -0.3 242.7 -0.2 242.6 42.8 0.5 c53.1 0.6 78.5 2.4 112.3 7.5 52 7.9 100.1 21.6 141.5 40.2 11.8 5.3 11.6 4.4 -0.9 -3.2 -26.9 -16.3 -67.8 -32.6 -106.6 -42.4 -50.3 -12.7 -94.2 -17.9 -153 -17.9 l-22.5 0 0 -249.8 c0 -155.9 0.4 -250.1 0.8 -250.5 0.5 -0.3 2.9 0.7 5.3 2.2 5.4 3.3 20.4 9.4 27.9 11.4 6.7 1.7 18.5 1.8 22.6 0.1 12.7 -5.3 18.1 -21.8 11.9 -35.7 -5 -11.2 -13.1 -14.9 -21 -9.6 -4.4 2.9 -6.1 4.9 -9.2 10.8 -3 5.7 -3.8 16.7 -1.8 23.4 0.7 2.4 1.2 4.3 1 4.3 -0.9 0 -5.3 -8.8 -6.4 -12.9 -1.5 -5.6 -1.6 -15 -0.3 -20.7 2.6 -11.6 12.4 -24.2 22.2 -28.8 4.6 -2.1 5.9 -2.3 12.5 -1.8 41.3 3.1 106.4 25.9 151.6 53.3 29.4 17.8 59.6 41 81.9 62.9 l7.4 7.4 -6 1.1 -6.1 1.1 -5.1 -4.6 c-12.4 -11.3 -28.8 -22.9 -51 -35.7 -15.2 -8.9 -49.9 -25.9 -68.4 -33.6 -25.1 -10.4 -60.9 -21.6 -89.4 -27.9 -3.4 -0.7 -3.8 0.3 -1.2 3.4 3.3 3.8 7.4 12.4 9 18.5 3.8 14.5 -0.5 30.6 -10.7 39.9 -12.5 11.5 -29.5 12.2 -49.4 2.2 l-5.6 -2.8 0 224.8 0 224.9 19.3 0.6 c35 1.1 72.9 5 99.1 10.2 15.6 3 45.2 10.7 59 15.2 57 18.9 106.8 47.9 142.2 82.7 9 8.9 10.6 11 11.2 14 0.7 4.4 2.5 5.1 10.3 4.2 8.5 -1 9 -1.3 9.7 -4.9 0.5 -2.6 2.5 -5.3 9.8 -12.4 20.9 -20.6 41.6 -35.8 72.6 -53 51.4 -28.7 112.2 -46.3 182.2 -52.7 15.6 -1.5 54.2 -3.6 64.1 -3.6 l2 0 0 -225.1 c0 -123.7 -0.3 -224.9 -0.6 -224.7 -18.2 9.3 -28 11.4 -39.7 8.4 -26.5 -6.9 -35.4 -39.6 -17.7 -65.3 1.6 -2.4 2.7 -4.4 2.5 -4.5 -0.6 -0.6 -32.8 7.5 -46.4 11.8 -64 19.9 -134.7 57 -168.6 88.2 -4.2 3.9 -5.6 4.8 -6.6 4 -0.6 -0.5 -2.7 -1.5 -4.7 -2.2 l-3.4 -1.3 9 -8.9 c16.5 -16.1 40.5 -35.3 64 -51 46.6 -31.1 98.6 -52.3 150.6 -61.5 18.4 -3.3 26.3 -3.4 31.7 -0.5 5.2 2.7 12 9.2 15.5 14.5 8.7 13.6 9.1 33.2 0.8 45 -1.8 2.5 -1.9 2.6 -1.4 0.5 0.4 -1.3 1.1 -4.8 1.6 -7.9 1.8 -10.3 -2.7 -22.4 -10.9 -28.7 -2.4 -1.9 -4.2 -2.4 -7.6 -2.4 -3.9 0 -4.9 0.5 -8.3 3.6 -5.9 5.4 -8.3 11.4 -8.3 20.9 0 6.8 0.4 8.3 2.7 12.6 4.6 8.4 10.9 11.8 22.3 11.9 9.3 0 20.1 -3.2 33.5 -9.8 5.7 -2.8 10.7 -5.3 11.2 -5.4 0.4 -0.2 0.6 112.4 0.6 250.1 l0 250.5 -20.1 0 c-83.3 0 -154 12.5 -217.5 38.5 -19.5 8 -46.4 22.2 -49.9 26.4 -1.3 1.5 -1.3 1.5 1.4 0.3 19 -9.8 61 -24 93.4 -31.5 54.5 -12.5 93.6 -16.7 167.2 -17.9 l39.2 -0.6 0 -242.6 0 -242.5 6.1 0 c7.8 0 12.9 2.7 15.6 8.4 l1.9 3.9 0 241.2 0 241.2 -1.9 3.8 c-2 4.3 -6 7.6 -10.7 9.3 -2.2 0.7 -14.3 1.1 -40.4 1.1 -20.5 0 -44.2 0.5 -52.7 0.9 -89.7 5.3 -167.7 24.2 -226.8 55.2 -11 5.7 -12 6.4 -14.1 10.4 -3.4 6.7 -12.3 14.4 -22 19.1 -8.9 4.4 -17.4 6.9 -22.7 6.9 -1.8 0 -3.5 0.5 -3.8 0.9 -0.3 0.5 -0.1 0.9 0.4 0.9 0.5 0 1 0.5 1 0.9 0 0.5 -1.9 0.9 -4.2 0.9 -3.2 0 -4.1 -0.3 -3.7 -1.3z"/>
  <path d="M447.4 672.7 c-45.2 -32.3 -109.7 -55.9 -181 -66.2 -20 -2.8 -32.6 -4 -54.1 -4.9 -18.1 -0.7 -20.4 -1.4 -19.9 -5 0.3 -1.8 0.9 -1.9 13 -2.2 39.1 -0.9 99.1 8.8 145.6 23.6 31.1 9.9 67.4 27.5 92.4 44.9 14.1 9.8 16.3 12.2 13.5 14.7 -1 0.7 -3.1 -0.4 -9.5 -4.9z"/>
  <path d="M436.8 629.1 c-22 -14.8 -54.8 -30.1 -85.9 -40.2 -40.8 -13.2 -91.5 -22.3 -134.5 -24.1 -21.3 -0.9 -23 -1.2 -23.7 -3.7 -0.4 -1.3 -0.1 -2.8 0.6 -3.7 1.1 -1.3 2.9 -1.4 14 -0.8 95 4.4 180.5 29.4 235.3 68.5 11 7.8 11.3 8.3 9.5 10.8 -0.7 1.1 -1.6 2 -2 1.9 -0.4 0 -6.4 -3.9 -13.3 -8.6z"/>
  <path d="M699.6 612.2 c0.6 -1.8 9.4 -6.8 15.6 -8.9 12.6 -4.1 44 -7.9 73.4 -8.8 l18.8 -0.5 0 2.8 c0 1.5 -0.4 3 -0.7 3.3 -0.4 0.2 -9.1 0.9 -19.2 1.5 -31.7 1.7 -59.6 5.3 -77.8 10 -8.4 2.1 -10.4 2.3 -10 0.7z"/>
  <path d="M453.1 603.5 c-14.5 -10.5 -36.7 -23.7 -55.2 -32.8 -3.6 -1.8 -4.6 -2.8 -4.8 -4.7 -0.2 -1.9 0.1 -2.5 1.2 -2.5 1.7 0 21.9 10 31.8 15.7 8.3 4.8 29.3 19 32 21.5 2 1.9 2 2.1 0.5 3.7 -0.8 0.9 -1.6 1.7 -1.7 1.7 -0.1 0 -1.8 -1.2 -3.7 -2.5z"/>
  <path d="M744.8 567 c0 -0.5 1.4 -2.4 3 -4 l2.9 -3.2 17.2 -1.4 c9.5 -0.7 22.1 -1.5 28.1 -1.6 l10.9 -0.3 0.3 2.6 c0.2 1.5 0 2.9 -0.5 3.4 -0.4 0.4 -8.3 1.2 -17.5 1.7 -9.3 0.5 -22.4 1.6 -29.4 2.4 -15 1.5 -15.1 1.5 -15.1 0.4z"/>
  <path d="M377.4 561.9 c-48.3 -19.8 -108.7 -32.3 -170.7 -35.4 -13.6 -0.6 -15 -1.3 -14 -5.4 l0.6 -2.4 15.6 0.5 c44.5 1.6 94.3 10.3 135.4 23.4 15.5 5 43.3 16.1 45.2 18 1.2 1.2 -1 4.6 -2.8 4.6 -0.8 -0.1 -5 -1.5 -9.3 -3.3z"/>
  <path d="M781.1 526.3 c0 -0.4 1.1 -2 2.5 -3.6 l2.4 -2.9 10.5 -0.5 c9.9 -0.5 10.6 -0.5 11 1.2 0.6 2.9 -0.3 4.9 -2.4 5.4 -3.5 0.6 -24.1 1.2 -24.1 0.5z"/>
  <path d="M224.5 488.9 c-4.4 -0.4 -13.2 -0.6 -19.1 -0.7 -12.1 -0.1 -13.8 -0.8 -12.7 -5.1 l0.5 -2.3 19.6 0 19.6 0 3.5 3.8 c2 2.2 3.5 4.2 3.5 4.5 0 0.8 -3 0.7 -15 -0.3z"/>
  <path d="M799.2 485.9 c0 -4.3 6.4 -6.7 8.2 -3.3 1.6 3.1 -0.4 5.4 -4.5 5.4 -3.3 0 -3.6 -0.3 -3.6 -2.2z"/>
  <path d="M193.7 448.5 c-0.8 -0.8 -1.4 -2.4 -1.2 -3.4 0.3 -1.8 0.8 -1.9 11.7 -2.2 l11.4 -0.3 1 2.4 c2.3 4.9 2 5 -10.2 5 -9.3 0 -11.6 -0.3 -12.8 -1.5z"/>
  <path d="M800.6 448.5 c-0.8 -0.8 -1.4 -2.4 -1.2 -3.4 0.3 -1.6 0.9 -1.9 4.4 -1.9 3.4 0 4.1 0.3 4.4 1.9 0.4 2.3 -2 4.9 -4.4 4.9 -0.9 0 -2.4 -0.6 -3.2 -1.5z"/>
  <path d="M192.8 409.1 c-0.3 -1 -0.3 -2.6 0 -3.6 0.5 -1.6 1.4 -1.8 8.5 -1.8 8.7 0 10.4 0.8 9.9 4.7 -0.3 2 -0.6 2.1 -9.1 2.4 -8.2 0.3 -8.8 0.1 -9.3 -1.6z"/>
  <path d="M795.5 408.5 c-1.5 -4 -0.5 -4.8 5.9 -4.8 5.2 0 5.8 0.2 6.3 2 1 3.7 -0.8 5.3 -6.3 5.3 -4.5 0 -5 -0.2 -5.9 -2.4z"/>
  <path d="M193.2 372.5 c-0.5 -0.7 -0.9 -2.3 -0.7 -3.4 0.3 -2 0.5 -2.1 11.9 -2.4 7.8 -0.2 11.5 0.1 11.5 0.7 0 0.5 -0.6 2.2 -1.4 3.6 l-1.5 2.7 -9.3 0 c-7.1 0 -9.6 -0.4 -10.5 -1.3z"/>
  <path d="M785.7 371.4 c-3.3 -4.1 -1.5 -4.9 10.8 -4.9 9.5 0 10.8 0.2 11.1 1.6 1.1 4.8 -0.7 5.6 -12.2 5.6 -7.4 0 -8 -0.1 -9.7 -2.4z"/>
  <path d="M193.2 334.4 c-0.5 -0.7 -0.9 -2.3 -0.7 -3.4 l0.3 -2.1 19.8 -0.3 c13.4 -0.2 19.7 0.1 19.7 0.7 0 0.5 -0.9 2.2 -2 3.6 l-2 2.7 -17 0 c-13.6 0 -17.1 -0.3 -18.1 -1.3z"/>
  <path d="M763 333.3 c-3.6 -4.6 -2.3 -5 22 -4.7 l21.9 0.3 0 3.2 0 3.2 -21 0.3 -21 0.2 -1.9 -2.4z"/>
  <path d="M221.8 298.5 c-15 -0.3 -27.8 -0.8 -28.3 -1.2 -2.1 -1.4 -1.4 -5.2 1.2 -6.1 2.9 -1.1 64.8 -1.2 64.8 -0.1 0 1.3 -8.1 8.3 -9.3 8.1 -0.6 -0.1 -13.4 -0.5 -28.4 -0.7z"/>
  <path d="M736.8 295.5 c-1.7 -1.7 -2.7 -3.4 -2.3 -3.6 0.4 -0.2 16.9 -0.5 36.6 -0.7 l35.8 -0.4 0.3 2.6 c0.2 1.5 0 2.9 -0.5 3.3 -0.4 0.5 -15.6 1 -33.8 1.4 l-33.1 0.6 -3 -3.2z"/>
  <path d="M285.9 264.4 c-14.7 -2.3 -29.9 -3.2 -60.6 -3.7 -33.1 -0.5 -33.4 -0.6 -32.7 -5 l0.3 -2.1 34 0.1 c30.8 0.1 35.9 0.3 54.3 2.4 11.2 1.4 20.7 2.4 21 2.4 1.9 0 0.5 2.7 -2.3 4.9 -3.4 2.6 -3.4 2.6 -14.1 0.9z"/>
  <path d="M698.5 263.5 c-3.3 -3.5 -1.3 -4.5 12.2 -6.3 20.2 -2.5 31.5 -3.2 64.6 -3.8 l32.1 -0.6 -0.3 3.5 -0.3 3.5 -30.4 0.6 c-30.6 0.5 -46 1.5 -63.4 3.9 -12.2 1.7 -12.1 1.7 -14.6 -0.9z"/>
  <path d="M656.2 238 c-2 -0.7 -1.3 -2.9 1.4 -4.3 4.5 -2.3 15 -5.2 29.2 -7.9 31.2 -6 50.7 -7.9 90.1 -8.7 l30.6 -0.5 0 2.6 c0 4.8 -0.5 4.9 -23 4.9 -22.8 0 -44 1.1 -63.1 3.3 -13.1 1.5 -44.5 6.6 -56.6 9.3 -4.1 0.9 -7.9 1.5 -8.4 1.3z"/>
  <path d="M325.7 234.9 c-32.9 -7 -59.6 -9.8 -98.4 -10.4 -16.4 -0.3 -30.8 -0.6 -31.9 -0.9 -2.2 -0.5 -3.4 -2.9 -2.4 -5.4 0.6 -1.5 2.7 -1.5 33.8 -1.1 35.4 0.5 49.8 1.7 77.2 6.6 23.1 4.1 41.7 8.9 41.7 10.7 0 1.9 -2.1 3.3 -4.9 3.2 -1.5 -0.1 -8.3 -1.3 -15.1 -2.7z"/>
 </g>
 <g fill="none">
  <path d="M650.9 859.3 c-4.8 -2.3 -8 -5.4 -10.6 -10.3 -1.9 -3.6 -2.1 -5.1 -2.1 -16.7 0.1 -13.1 1.7 -22.1 6.9 -36.7 2.1 -6 2.1 -5.6 -0.2 -5.3 -1.4 0.2 -6.3 7.2 -17.9 25.4 -16.1 25.1 -19.3 29.8 -21 29.8 -0.5 0 -0.9 -4.9 -0.9 -12.9 0 -7.2 -0.6 -20.3 -1.4 -29.3 -0.7 -9 -1.4 -16.6 -1.4 -17 0 -0.5 -0.4 -0.7 -0.8 -0.7 -0.5 0 -3.3 7.7 -6.4 17.1 -6.5 20 -12.8 33 -19.1 40.2 -8.6 9.7 -21 13.5 -28.2 8.6 -3.8 -2.5 -5.2 -6 -3.7 -9.3 1.3 -2.8 5.6 -3.3 5.6 -0.5 0 3.2 3.4 6.4 6.9 6.4 4.1 0 7.3 -1.7 11.3 -6.1 8 -8.3 14.2 -20.9 23 -46.5 3.4 -9.7 7.1 -20 8.3 -23 1.3 -2.8 2.1 -5.4 1.8 -5.8 -0.4 -0.3 -3.5 -0.7 -7.2 -0.9 -18.1 -1.2 -33.5 8.5 -33.7 21.4 -0.1 8.3 3.5 13 10.5 13.2 2.9 0.1 4 -0.5 6.2 -2.9 1.5 -1.6 2.6 -3.9 2.6 -5.2 0 -1.5 0.5 -2.3 1.5 -2.3 1.2 0 1.4 0.6 1 3.1 -1.1 6.7 -7 11.4 -14.4 11.4 -9.1 0 -14.8 -6.8 -14.1 -16.8 0.2 -3.1 1.1 -6.9 2 -8.5 2.5 -5 8.7 -11 14.1 -13.7 9.5 -4.7 17.1 -5.6 36.2 -4.2 l10.3 0.8 -0.5 6 c-0.4 3.3 0 13.8 0.7 23.2 0.7 9.5 1.4 19.9 1.4 23.1 l0 5.9 1.7 -2.7 c11.6 -18.9 15 -24 20.4 -31.8 8.3 -11.6 19.1 -23 25.2 -26.3 3.7 -2 6.3 -2.7 11.6 -3 6.4 -0.4 7.1 -0.3 9.8 2.1 4.1 3.4 3.9 5.5 -0.3 3.1 -9.3 -5.5 -17.5 3.5 -25.3 28 -6.3 20 -8.2 30.1 -8.3 44.2 0 11.9 0.2 13 2.3 16.6 2.6 4.7 5.7 6.5 11.1 6.5 3.6 0 3.7 0.1 2.3 1.5 -2.4 2.4 -12.7 2.6 -17.4 0.5z"/>
  <path d="M297.2 858.7 c-5.4 -1.9 -9.8 -6 -12.8 -11.8 -2.5 -4.9 -2.7 -6.2 -3.1 -16.5 l-0.3 -11.2 -9.6 0.3 -9.6 0.3 -5.3 7.3 c-15.6 22 -34.6 32.1 -51.2 27.1 -8.4 -2.5 -13.4 -9.2 -13.5 -18.1 0 -9.4 5.4 -15.4 13.4 -14.8 2.9 0.2 4 0.7 4.8 2.4 1.6 3.2 0.3 5.8 -3.5 6.9 -4.7 1.4 -6.5 3.4 -6.5 7.7 0 10.7 13.6 15.2 25.9 8.5 6 -3.2 14.4 -11.5 21.9 -21.5 l5.5 -7.4 -4.6 -0.3 c-2.5 -0.2 -5.6 0.2 -6.7 0.8 -1.9 0.9 -1.9 0.8 0.4 -1.5 2 -2 3.4 -2.5 8.3 -3 l5.9 -0.5 7.4 -11.3 c9.4 -14.2 17.2 -24.2 24.9 -31.9 l6 -6.1 -4.3 -0.6 c-6.5 -0.9 -21.8 0.3 -29.3 2.4 -8.5 2.4 -12.9 4.6 -18 9.3 -7.5 6.9 -9.9 14.7 -6.7 21.9 3 6.8 10.2 8.7 15.2 4 2.9 -2.7 4.4 -1.6 2 1.5 -6.2 7.9 -19.2 6.3 -24.2 -3.1 -1.7 -3.4 -2.1 -5 -1.7 -9.2 0.9 -10.8 7.5 -19.4 19 -24.9 10.7 -5.2 17.7 -6.3 36.1 -5.6 14.2 0.5 16.4 0.4 20.9 -1.2 5.4 -1.9 11.8 -2.4 11.8 -0.9 0 0.5 -0.6 0.9 -1.3 0.9 -2.1 0 -5.9 5.7 -8.8 13.1 -3.6 9.3 -8 27.7 -8.7 36.3 l-0.5 7.2 2.4 -0.6 c1.4 -0.3 3.4 -0.8 4.7 -1.1 4.3 -1 2.3 1.3 -2.8 3.4 l-5.1 2 0.4 12 c0.4 10.8 0.6 12.5 2.9 17.1 3.1 6.4 6.9 9.2 12.2 9.1 2.1 0 3.8 0.1 3.8 0.3 0 0.2 -1.5 1 -3.2 1.7 -3.9 1.6 -9.8 1.5 -14.4 -0.1z m-13.8 -53.3 c0.9 -5 2.8 -12.9 4.3 -17.4 1.5 -4.5 2.6 -8.3 2.6 -8.4 0 -0.2 -0.8 -0.3 -1.8 -0.3 -1.2 0 -3.3 2.2 -6.4 6.8 -5.8 8.6 -16.3 25.9 -16.3 26.9 0 0.6 4.1 1.2 12.2 1.5 l3.6 0.2 1.7 -9.3z"/>
  <path d="M358.1 845.1 c-4.7 -1.7 -7.5 -4.5 -9.3 -9.3 -2.1 -5.5 -1.4 -14.8 1.7 -21.5 2.9 -6.3 10.3 -14.4 15.5 -16.9 11.6 -5.4 23.2 -1.5 22 7.4 -0.6 4.6 -3 7.2 -6.4 6.8 -3.8 -0.4 -5 -2.6 -3.4 -6.4 2.4 -5.9 2.3 -6.2 -0.3 -6.2 -5.3 0 -10.2 4.2 -13.3 11.3 -8.8 19.8 -4 33.8 9.6 28.2 3.7 -1.5 11.5 -8.6 14 -12.7 1 -1.5 3.8 -10.2 6.4 -19.1 2.6 -9 6.4 -21.1 8.4 -27 3.1 -8.9 3.5 -10.9 2.4 -11.6 -1.9 -1.2 -0.3 -2.1 7.8 -4.8 8.7 -2.8 10.8 -2.9 13.2 -0.5 5 5 -0.7 19.1 -13.2 32.7 -3.3 3.5 -5.2 6.7 -6.5 10.6 -1 3.1 -1.7 5.6 -1.5 5.6 0.1 0 1.5 -1.9 3.1 -4.4 5 -7.8 11 -12 17.3 -12 3.9 0 5.9 1.3 7.3 4.5 1.5 3.4 0.8 7.1 -3.2 20 -4 12.6 -4.7 16.8 -3.2 18.6 0.6 0.7 1.6 1.4 2.4 1.4 1.6 0 7.2 -5.8 9.8 -10.4 3 -5 9.1 -26.2 8.3 -29 -0.5 -1.6 -0.1 -2.4 1.2 -3.2 2.1 -1.1 12.8 -1.3 12.8 -0.2 0 0.4 -1.8 7.3 -4.1 15.2 -6 21.3 -6.6 24.6 -4.8 26.5 1.5 1.4 1.7 1.4 3.8 0 1.2 -0.8 3.8 -3.4 5.6 -5.6 4.1 -4.9 6.8 -5.6 4.3 -1.3 -3 5.3 -9.3 11.5 -13 13 -5.6 2.3 -10.9 0.3 -12.8 -4.6 -1 -2.8 -2.8 -2.6 -6.2 0.5 -6.5 6.2 -14 7.1 -18.1 2.2 -1.9 -2.3 -2.1 -3.1 -1.6 -8.9 0.3 -3.7 1.8 -10.3 3.7 -16.1 1.8 -5.4 3.3 -11 3.3 -12.4 0 -2.4 -0.4 -2.8 -2.4 -2.8 -5.8 0 -14.7 14.9 -19.1 32.2 l-2.6 10 -6 0.3 c-6.6 0.3 -6.7 0.2 -5.3 -5.1 0.8 -2.6 0.6 -2.9 -1 -2.9 -1 0 -3.1 1 -4.5 2.3 -6.8 5.8 -15.4 7.9 -21.9 5.5z m57.9 -56.3 c5.6 -7.9 8.6 -14.6 8.6 -19.2 0 -3.5 -0.2 -3.9 -2.2 -3.9 -1.9 0 -2.6 1 -4.9 6.6 -2.4 5.8 -7.4 21.2 -7.4 22.9 0 1.3 1.8 -0.7 5.9 -6.4z"/>
  <path d="M474.3 844.9 c-2.4 -2.8 -2.7 -4.9 -3.4 -24.2 -0.7 -17.2 -1 -19.1 -2.6 -20.9 -1.1 -1.1 -1.9 -2.3 -1.9 -2.6 0 -0.4 3.4 -0.6 7.6 -0.6 l7.6 0 0.6 2.8 c0.4 1.5 0.7 8.5 0.9 15.6 0.1 7.1 0.3 14.7 0.4 17 l0.2 4.1 3.2 -3.6 c1.8 -2 5.3 -7.7 7.8 -12.7 4.4 -9 4.5 -9.2 4.2 -16.3 l-0.3 -7.3 2.7 -0.3 c4.3 -0.4 5.4 1 5.4 5.9 -0.1 5 -2.6 11.2 -9 21.6 -9 14.9 -16.3 23.1 -20.6 23.1 -0.7 0 -2 -0.7 -2.7 -1.5z"/>
  <path d="M517.7 845.1 c-8.3 -2.3 -12.2 -8.8 -11.2 -19.2 0.8 -11.1 8.7 -22.9 18.5 -27.8 3.3 -1.5 5.9 -2.1 10.5 -2.1 5.7 0 6.4 0.2 8.4 2.5 7.1 8.3 -2.8 20.6 -20 25.1 -2.4 0.6 -4.9 1.5 -5.4 1.9 -1.6 1.5 0.5 9.2 3.2 12 2.4 2.4 3.1 2.6 6.4 2.1 5.6 -0.9 9.9 -3.4 16.1 -9.7 3.1 -3.1 5.9 -5.4 6.2 -5.1 1 1 -3.2 6.7 -8.7 11.8 -8.7 8.1 -15.9 10.6 -23.9 8.4z m10.9 -27.9 c4.4 -2.7 8.4 -9.3 8.4 -13.7 0 -3.4 -0.1 -3.4 -3.1 -3.4 -2.4 0 -3.7 0.7 -6.1 3.4 -2.9 3.4 -8.1 13.6 -8.1 16.1 0 1.7 4.1 0.6 8.8 -2.3z"/>
  <path d="M670.7 845.4 c-7.1 -2.1 -7.3 -8.2 -1.5 -28.7 l4.3 -14.8 -2.1 -2.1 -2 -2.2 2.1 -0.6 c1.2 -0.3 5 -0.5 8.5 -0.5 l6.5 0 -0.8 3.7 c-0.5 2.1 -2.7 10.3 -4.9 18.4 -4.4 15.6 -4.8 18.8 -2.8 20.4 1.8 1.5 4.1 0.2 8 -4.4 4.8 -5.6 7.6 -11.4 10.6 -22.1 3.3 -11.6 3.2 -10.9 1.4 -12.8 -2.2 -2.2 -0.7 -2.9 6.7 -3.4 5.2 -0.5 6.7 -0.3 7.1 0.7 0.3 0.6 -0.3 4.2 -1.3 7.9 -1 3.6 -1.7 6.7 -1.5 6.9 0.2 0.2 1 -1 1.8 -2.5 2 -3.9 8.3 -10.7 11.4 -12.3 4 -2 9.3 -1.6 12.2 0.9 2.2 1.8 2.5 2.8 2.4 6.6 0 2.5 -1.3 8.6 -2.8 13.5 -4.1 13.2 -5 17.3 -4.4 19.9 0.7 2.9 2.4 2.9 5.9 0 4 -3.4 6.4 -7.9 8.3 -15.4 2.1 -8.3 4.4 -13.2 9 -18.1 7.3 -7.9 18.1 -11.2 24 -7.4 1.4 0.9 2.5 1.5 2.7 1.3 0.2 -0.2 1.5 -5 3.2 -10.7 1.5 -5.7 3.3 -11.6 3.7 -13.1 1.4 -4.3 1 -6.7 -1 -7.3 -1.6 -0.5 -2.6 -2.3 -1.4 -2.3 0.3 0 3.6 -0.6 7.3 -1.5 3.8 -0.7 8 -1.3 9.3 -1.1 l2.4 0.3 -6.9 23.1 c-12.5 41.5 -14.5 51.5 -10.7 53.9 2.4 1.5 5.8 -1.5 11.5 -10 2.6 -3.9 5.2 -7.3 5.6 -7.4 3.2 -1.2 -3.7 11.3 -9.6 17.5 -5.7 6.1 -10.3 7.7 -15.3 5.5 -2.5 -1.1 -3.7 -2.3 -4.8 -5.1 -1.8 -4.5 -3.8 -4.7 -7 -0.5 -3.1 4.1 -9.7 7.3 -13.5 6.5 -3 -0.6 -8.8 -5.5 -8.8 -7.5 0 -2.1 -3.3 -1.3 -6 1.6 -3 3.3 -8.5 6.3 -11.2 6.3 -3.2 0 -7 -2.4 -8.2 -5.4 -1.6 -4.1 -0.7 -10.4 3.6 -24.2 2.1 -6.6 3.6 -12.6 3.3 -13.4 -0.9 -2.5 -4.4 -1.5 -8.3 2.7 -5.1 5.2 -10.4 16.4 -14.1 29.3 l-2.9 10.2 -5.9 0 -5.8 0 0.5 -3.2 c0.5 -2.5 0.4 -3.2 -0.7 -3.2 -0.8 0 -3.3 1.5 -5.6 3.2 -2.3 1.7 -4.7 3.2 -5.4 3.2 -0.6 0 -1.7 0.2 -2.4 0.4 -0.6 0.2 -2.4 0 -4.1 -0.5z m93.7 -9.5 c7 -7.7 14.6 -28.4 12.3 -33.6 -1.5 -3 -6.4 -3 -10 0 -3 2.5 -7.4 10.6 -9.5 17.3 -4.9 15.7 -0.8 24.9 7.2 16.2z"/>
  <path d="M305.7 844.4 c0 -0.5 2.1 -8.3 4.6 -17 8 -27.2 7.8 -26.5 5.5 -28 -3.4 -2.3 -2.2 -2.9 6.2 -2.9 l8.3 0 -0.6 3.4 c-0.4 1.8 -1.2 5 -1.8 7 l-1.2 3.6 2 -2.7 c1.1 -1.5 4.1 -4.9 6.7 -7.4 4.3 -4.4 5.2 -4.8 8.7 -4.8 5 0 6.1 1.2 6.1 6.4 0 5.9 -2.6 9.2 -7.2 8.8 -2.8 -0.3 -3.3 -0.6 -3.5 -2.7 -0.3 -2 -0.8 -2.5 -2.5 -2.5 -2.4 0 -6.2 4.5 -9.9 11.8 -2.3 4.4 -7.2 19.3 -8.2 24.8 l-0.6 3.4 -6.3 0 c-4.3 0 -6.3 -0.4 -6.3 -1.1z"/>
  <path d="M453.8 786.3 c-1.4 -1.5 -2 -3.3 -2 -5.8 0 -3.4 0.2 -3.8 3.6 -5.2 6.2 -2.4 10 -0.4 10 5.5 0 3.3 -4.2 7.5 -7.3 7.5 -1.3 0 -3.2 -0.9 -4.3 -2.1z"/>
  <path d="M679.5 786.5 c-4.1 -4.1 -0.7 -11.8 5.1 -11.8 6.3 0 9 6.9 4.4 11.3 -2.7 2.8 -7 3 -9.5 0.5z"/>
 </g>
</svg>
