<svg xmlns="http://www.w3.org/2000/svg" width="24" height="24" viewBox="120 100 720 720"><g fill="currentColor"><path d="M477.2 752.4c-34.5-34.6-85.7-64.5-142.9-83.5-13.8-4.5-43.4-12.2-59-15.2-26.1-5.2-64-9.1-99.1-10.2l-19.3-.6V187.3l2.7 0c1.5 0 5.5 1.4 8.9 3.1 15 7.4 25.5 8.3 35.9 3.1 8.8-4.4 16.3-14.8 18.8-25.8 2-9-1.8-22.5-9-31.9-2.3-2.9-2.9-4.7-2.7-6.8.3-2.9.3-2.9 5.3-2.8 12.1.3 63.6 15.8 93 27.9 39.4 16.3 83.1 40.4 106.1 58.3 14.5 11.2 17.7 14.5 17.7 18.1 0 2.8-.3 3.1-3.8 4-11.8 3.1-23 8.3-29.3 14l-4.5 3.9-13.2.5c-19.4.6-32 4.4-46.4 13.5-8 5.2-19.3 16.5-22.6 22.8-2 3.8-2.6 4.4-6.8 5.4-27.8 6.7-51.3 31.9-52.9 56.4l-.5 7.1-4.7 5c-8.9 9.2-14.9 24.3-13.7 34.6.7 6.3 3.5 13.7 7.4 19.4l3.1 4.5-.2 11.1c-.1 9.3.2 11.9 1.8 16.3 8.6 23.4 31.8 39.8 61 43.2 25.1 2.9 56.1 6.6 57.6 6.9 1.3.3 2.4 1.8 3.4 4.8 3.8 10.5 14.4 23.1 25.8 30.3 10.1 6.4 22 10.7 29.7 10.7 2.3 0 5.3 1 8.3 2.6 14.3 8.3 33.4 8.7 54.2 1.5 3.6-1.3 8.2-2.3 10.2-2.3 3.4 0 4.2.5 9.9 6.7 3.4 3.6 12.6 11.9 20.4 18.3 26 21.1 33.8 30.7 49.4 60.6 9.3 17.9 10.4 19.1 18.4 20 2.5.4 10 .2 16.5-.2 13.2-.9 16.1-2.1 18.9-7.8 1.7-3.7 1.4-5.2-6.4-26.3-3.3-9-4.9-14.8-4.9-17.6l0-4.2 8 .8c14.7 1.5 29.6.8 39.6-1.8 24-6.3 42-20.1 51.9-40 3.5-7 4.6-10.6 5.5-17.1l.6-5.3 5-1.5c21-6.5 37.7-26.3 44.5-52.7 3.5-13.5 2.1-27.9-4.3-41.7-3.5-7.8-3.6-8.4-.8-20.2 1.1-5.1 1.2-7.3.5-11.8-3-17-10.5-30.2-23-40.3-8-6.4-7.9-6.3-7.9-10.3 0-5.2-3.8-17-7.6-24-5.3-9.4-16.3-20-25.8-24.8-4.2-2.1-9-4-10.7-4.4-2.7-.5-3.5-1.3-5.8-5.8-12.1-24-45.2-45.4-79.7-51.4-7.3-1.3-9.7-1.4-17.2-.5-13.6 1.7-14.8 1.5-21.1-2.5-3.1-2-6.2-3.6-6.9-3.6-.8 0-1.2-1.2-1.2-3.5 0-3.2.5-4.1 5.1-8.2 34.1-31.2 104.4-67.9 167.9-87.6 15.6-4.9 45.2-12.2 49.3-12.2 2.5 0 2.7.3 2.7 3.3 0 2.1-1 4.6-2.8 7.3-5.4 7.7-9 18.2-9 25.9 0 6.4 3.2 15.4 7.6 21.4 4.7 6.4 11.2 10.5 19.8 12.6 5.6 1.4 6.5 1.4 12.7 0 3.6-.8 9.9-3.1 14.1-5.1 4.1-2 8.7-3.6 10.2-3.6l2.8 0v455.4l-2 0c-10 0-48.5 2.2-64.1 3.6-69.9 6.4-130.7 24-182.2 52.7-31 17.2-51.7 32.3-72.8 53.2-7.5 7.4-10 9.3-12.1 9.3l-2.5 0v-84.7l-7.7-7-7.7-7v91.7 91.7l-2.9 0c-2.5-.1-4.4-1.5-12.5-9.6z"/></g></svg>
